<svg xmlns="http://www.w3.org/2000/svg" xmlns:xlink="http://www.w3.org/1999/xlink" viewBox="0 0 80 44" fill="#fff" fill-rule="evenodd" stroke="#000" stroke-linecap="round" stroke-linejoin="round"><style><![CDATA[.B{fill-rule:nonzero}.C{stroke-width:.274}.D{stroke-width:.117}]]></style><use xlink:href="#Ab" x=".5" y=".5"/><defs><linearGradient id="A" y2="108.04%" x2="51.50%" y1="-14.26%" x1="48.45%"><stop offset="0%" stop-color="#693594"/><stop offset="10.6%" stop-color="#892e83"/><stop offset="26.5%" stop-color="#b4246c"/><stop offset="40.9%" stop-color="#d31d5c"/><stop offset="53.1%" stop-color="#e61952"/><stop offset="61.6%" stop-color="#ed174e"/><stop offset="100%" stop-color="#f9e57e"/></linearGradient><linearGradient id="B" y2="134.96%" x2="52.00%" y1="25.26%" x1="49.42%"><stop offset="0%" stop-color="#693594"/><stop offset="10.6%" stop-color="#892e83"/><stop offset="26.5%" stop-color="#b4246c"/><stop offset="40.9%" stop-color="#d31d5c"/><stop offset="53.1%" stop-color="#e61952"/><stop offset="61.6%" stop-color="#ed174e"/><stop offset="100%" stop-color="#f9e57e"/></linearGradient><linearGradient id="C" y2="108.62%" x2="51.69%" y1="-15.75%" x1="48.25%"><stop offset="0%" stop-color="#693594"/><stop offset="10.6%" stop-color="#892e83"/><stop offset="26.5%" stop-color="#b4246c"/><stop offset="40.9%" stop-color="#d31d5c"/><stop offset="53.1%" stop-color="#e61952"/><stop offset="61.6%" stop-color="#ed174e"/><stop offset="100%" stop-color="#f9e57e"/></linearGradient><linearGradient id="D" y2="133.74%" x2="52.74%" y1="14.51%" x1="49.03%"><stop offset="0%" stop-color="#693594"/><stop offset="10.6%" stop-color="#892e83"/><stop offset="26.5%" stop-color="#b4246c"/><stop offset="40.9%" stop-color="#d31d5c"/><stop offset="53.1%" stop-color="#e61952"/><stop offset="61.6%" stop-color="#ed174e"/><stop offset="100%" stop-color="#f9e57e"/></linearGradient><linearGradient id="E" y2="108.61%" x2="51.60%" y1="-16.91%" x1="48.43%"><stop offset="0%" stop-color="#693594"/><stop offset="10.6%" stop-color="#892e83"/><stop offset="26.5%" stop-color="#b4246c"/><stop offset="40.9%" stop-color="#d31d5c"/><stop offset="53.1%" stop-color="#e61952"/><stop offset="61.6%" stop-color="#ed174e"/><stop offset="100%" stop-color="#f9e57e"/></linearGradient><linearGradient id="F" y2="155.15%" x2="52.28%" y1="5.14%" x1="49.10%"><stop offset="0%" stop-color="#693594"/><stop offset="10.6%" stop-color="#892e83"/><stop offset="26.5%" stop-color="#b4246c"/><stop offset="40.9%" stop-color="#d31d5c"/><stop offset="53.1%" stop-color="#e61952"/><stop offset="61.6%" stop-color="#ed174e"/><stop offset="100%" stop-color="#f9e57e"/></linearGradient><linearGradient id="G" y2="111.21%" x2="51.43%" y1="-20.50%" x1="48.60%"><stop offset="0%" stop-color="#693594"/><stop offset="10.6%" stop-color="#892e83"/><stop offset="26.5%" stop-color="#b4246c"/><stop offset="40.9%" stop-color="#d31d5c"/><stop offset="53.1%" stop-color="#e61952"/><stop offset="61.6%" stop-color="#ed174e"/><stop offset="100%" stop-color="#f9e57e"/></linearGradient><linearGradient id="H" y2="139.45%" x2="51.87%" y1="-8.51%" x1="48.80%"><stop offset="0%" stop-color="#693594"/><stop offset="10.6%" stop-color="#892e83"/><stop offset="26.5%" stop-color="#b4246c"/><stop offset="40.9%" stop-color="#d31d5c"/><stop offset="53.1%" stop-color="#e61952"/><stop offset="61.6%" stop-color="#ed174e"/><stop offset="100%" stop-color="#f9e57e"/></linearGradient><linearGradient id="I" y2="35.75%" x2="49.86%" y1="-40.57%" x1="48.99%"><stop offset="0%" stop-color="#f9e57e"/><stop offset="10.6%" stop-color="#f7db7d"/><stop offset="34.9%" stop-color="#f3c87a"/><stop offset="52%" stop-color="#f2c179"/><stop offset="71%" stop-color="#f5d17b"/><stop offset="100%" stop-color="#f9e57e"/></linearGradient><linearGradient id="J" y2="83.57%" x2="47.13%" y1="-96.07%" x1="61.22%"><stop offset="0%" stop-color="#f9e57e"/><stop offset="10.6%" stop-color="#f7db7d"/><stop offset="34.9%" stop-color="#f3c87a"/><stop offset="52%" stop-color="#f2c179"/><stop offset="71%" stop-color="#f5d17b"/><stop offset="100%" stop-color="#f9e57e"/></linearGradient><linearGradient id="K" y2="31.81%" x2="50.18%" y1="-61.41%" x1="49.11%"><stop offset="0%" stop-color="#f9e57e"/><stop offset="10.6%" stop-color="#f7db7d"/><stop offset="34.9%" stop-color="#f3c87a"/><stop offset="52%" stop-color="#f2c179"/><stop offset="71%" stop-color="#f5d17b"/><stop offset="100%" stop-color="#f9e57e"/></linearGradient><linearGradient id="L" y2="132.32%" x2="44.02%" y1="-133.30%" x1="61.93%"><stop offset="0%" stop-color="#f9e57e"/><stop offset="10.6%" stop-color="#f7db7d"/><stop offset="34.9%" stop-color="#f3c87a"/><stop offset="52%" stop-color="#f2c179"/><stop offset="71%" stop-color="#f5d17b"/><stop offset="100%" stop-color="#f9e57e"/></linearGradient><linearGradient id="M" y2="28.69%" x2="49.83%" y1="-127.87%" x1="48.21%"><stop offset="0%" stop-color="#f9e57e"/><stop offset="10.6%" stop-color="#f7db7d"/><stop offset="34.9%" stop-color="#f3c87a"/><stop offset="52%" stop-color="#f2c179"/><stop offset="71%" stop-color="#f5d17b"/><stop offset="100%" stop-color="#f9e57e"/></linearGradient><linearGradient id="N" y2="25.93%" x2="50.09%" y1="-163.84%" x1="48.11%"><stop offset="0%" stop-color="#f9e57e"/><stop offset="10.6%" stop-color="#f7db7d"/><stop offset="34.9%" stop-color="#f3c87a"/><stop offset="52%" stop-color="#f2c179"/><stop offset="71%" stop-color="#f5d17b"/><stop offset="100%" stop-color="#f9e57e"/></linearGradient><linearGradient id="O" y2="150.80%" x2="51.05%" y1="-96.59%" x1="49.16%"><stop offset="0%" stop-color="#f9e57e"/><stop offset="10.6%" stop-color="#f7db7d"/><stop offset="34.9%" stop-color="#f3c87a"/><stop offset="52%" stop-color="#f2c179"/><stop offset="71%" stop-color="#f5d17b"/><stop offset="100%" stop-color="#f9e57e"/></linearGradient><linearGradient id="P" y2="93.33%" x2="50.35%" y1="-264.82%" x1="47.39%"><stop offset="0%" stop-color="#f9e57e"/><stop offset="10.6%" stop-color="#f7db7d"/><stop offset="34.9%" stop-color="#f3c87a"/><stop offset="52%" stop-color="#f2c179"/><stop offset="71%" stop-color="#f5d17b"/><stop offset="100%" stop-color="#f9e57e"/></linearGradient><linearGradient id="Q" y2="-33.64%" x2="63.27%" y1="136.75%" x1="36.73%"><stop offset="0%" stop-color="#693594"/><stop offset="10.6%" stop-color="#892e83"/><stop offset="26.5%" stop-color="#b4246c"/><stop offset="40.9%" stop-color="#d31d5c"/><stop offset="53.1%" stop-color="#e61952"/><stop offset="61.6%" stop-color="#ed174e"/><stop offset="100%" stop-color="#f9e57e"/></linearGradient><linearGradient id="R" y2="-93.02%" x2="111.12%" y1="47.81%" x1="51.22%"><stop offset="0%" stop-color="#693594"/><stop offset="10.6%" stop-color="#892e83"/><stop offset="26.5%" stop-color="#b4246c"/><stop offset="40.9%" stop-color="#d31d5c"/><stop offset="53.1%" stop-color="#e61952"/><stop offset="61.6%" stop-color="#ed174e"/><stop offset="100%" stop-color="#f9e57e"/></linearGradient><linearGradient id="S" y2="-26.10%" x2="66.47%" y1="154.58%" x1="28.94%"><stop offset="0%" stop-color="#693594"/><stop offset="10.6%" stop-color="#892e83"/><stop offset="26.5%" stop-color="#b4246c"/><stop offset="40.9%" stop-color="#d31d5c"/><stop offset="53.1%" stop-color="#e61952"/><stop offset="61.6%" stop-color="#ed174e"/><stop offset="100%" stop-color="#f9e57e"/></linearGradient><linearGradient id="T" y2="-60.75%" x2="98.59%" y1="88.88%" x1="39.43%"><stop offset="0%" stop-color="#693594"/><stop offset="10.6%" stop-color="#892e83"/><stop offset="26.5%" stop-color="#b4246c"/><stop offset="40.9%" stop-color="#d31d5c"/><stop offset="53.1%" stop-color="#e61952"/><stop offset="61.6%" stop-color="#ed174e"/><stop offset="100%" stop-color="#f9e57e"/></linearGradient><linearGradient id="U" y2="-44.84%" x2="63.24%" y1="198.53%" x1="30.12%"><stop offset="0%" stop-color="#693594"/><stop offset="10.6%" stop-color="#892e83"/><stop offset="26.5%" stop-color="#b4246c"/><stop offset="40.9%" stop-color="#d31d5c"/><stop offset="53.1%" stop-color="#e61952"/><stop offset="61.6%" stop-color="#ed174e"/><stop offset="100%" stop-color="#f9e57e"/></linearGradient><linearGradient id="V" y2="-60.89%" x2="82.77%" y1="145.12%" x1="23.27%"><stop offset="0%" stop-color="#693594"/><stop offset="10.6%" stop-color="#892e83"/><stop offset="26.5%" stop-color="#b4246c"/><stop offset="40.9%" stop-color="#d31d5c"/><stop offset="53.1%" stop-color="#e61952"/><stop offset="61.6%" stop-color="#ed174e"/><stop offset="100%" stop-color="#f9e57e"/></linearGradient><linearGradient id="W" y2="-20.88%" x2="59.78%" y1="227.24%" x1="27.85%"><stop offset="0%" stop-color="#693594"/><stop offset="10.6%" stop-color="#892e83"/><stop offset="26.5%" stop-color="#b4246c"/><stop offset="40.9%" stop-color="#d31d5c"/><stop offset="53.1%" stop-color="#e61952"/><stop offset="61.6%" stop-color="#ed174e"/><stop offset="100%" stop-color="#f9e57e"/></linearGradient><linearGradient id="X" y2="155.36%" x2="50.98%" y1="55.22%" x1="50.08%"><stop offset="0%" stop-color="#f9e57e"/><stop offset="10.6%" stop-color="#f7db7d"/><stop offset="34.9%" stop-color="#f3c87a"/><stop offset="52%" stop-color="#f2c179"/><stop offset="71%" stop-color="#f5d17b"/><stop offset="100%" stop-color="#f9e57e"/></linearGradient><linearGradient id="Y" y2="205.20%" x2="40.94%" y1="4.28%" x1="52.86%"><stop offset="0%" stop-color="#f9e57e"/><stop offset="10.6%" stop-color="#f7db7d"/><stop offset="34.9%" stop-color="#f3c87a"/><stop offset="52%" stop-color="#f2c179"/><stop offset="71%" stop-color="#f5d17b"/><stop offset="100%" stop-color="#f9e57e"/></linearGradient><linearGradient id="Z" y2="224.31%" x2="39.98%" y1="-12.92%" x1="54.65%"><stop offset="0%" stop-color="#f9e57e"/><stop offset="10.6%" stop-color="#f7db7d"/><stop offset="34.9%" stop-color="#f3c87a"/><stop offset="52%" stop-color="#f2c179"/><stop offset="71%" stop-color="#f5d17b"/><stop offset="100%" stop-color="#f9e57e"/></linearGradient><linearGradient id="a" y2="343.00%" x2="36.21%" y1="-111.09%" x1="58.59%"><stop offset="0%" stop-color="#f9e57e"/><stop offset="10.6%" stop-color="#f7db7d"/><stop offset="34.9%" stop-color="#f3c87a"/><stop offset="52%" stop-color="#f2c179"/><stop offset="71%" stop-color="#f5d17b"/><stop offset="100%" stop-color="#f9e57e"/></linearGradient><linearGradient id="b" y2="137.04%" x2="50.70%" y1="-113.05%" x1="48.83%"><stop offset="0%" stop-color="#f9e57e"/><stop offset="10.6%" stop-color="#f7db7d"/><stop offset="34.9%" stop-color="#f3c87a"/><stop offset="52%" stop-color="#f2c179"/><stop offset="71%" stop-color="#f5d17b"/><stop offset="100%" stop-color="#f9e57e"/></linearGradient><linearGradient id="c" y2="146.43%" x2="50.73%" y1="2.85%" x1="49.58%"><stop offset="0%" stop-color="#f9e57e"/><stop offset="10.6%" stop-color="#f7db7d"/><stop offset="34.9%" stop-color="#f3c87a"/><stop offset="52%" stop-color="#f2c179"/><stop offset="71%" stop-color="#f5d17b"/><stop offset="100%" stop-color="#f9e57e"/></linearGradient><linearGradient id="d" y2="121.28%" x2="1.45%" y1="8.52%" x1="105.74%"><stop offset="0%" stop-color="#7e3895"/><stop offset="7.1%" stop-color="#9b2f82"/><stop offset="16%" stop-color="#b9266f"/><stop offset="25.4%" stop-color="#d02061"/><stop offset="35.5%" stop-color="#e01b56"/><stop offset="46.8%" stop-color="#ea1850"/><stop offset="61.6%" stop-color="#ed174e"/><stop offset="100%" stop-color="#f9e57e"/></linearGradient><linearGradient id="e" y2="104.73%" x2="10.31%" y1="11.09%" x1="99.00%"><stop offset="0%" stop-color="#7e3895"/><stop offset="7.1%" stop-color="#9b2f82"/><stop offset="16%" stop-color="#b9266f"/><stop offset="25.4%" stop-color="#d02061"/><stop offset="35.5%" stop-color="#e01b56"/><stop offset="46.8%" stop-color="#ea1850"/><stop offset="61.6%" stop-color="#ed174e"/><stop offset="100%" stop-color="#f9e57e"/></linearGradient><linearGradient id="f" y2="100.17%" x2="12.99%" y1="12.61%" x1="87.22%"><stop offset="0%" stop-color="#7e3895"/><stop offset="7.1%" stop-color="#9b2f82"/><stop offset="16%" stop-color="#b9266f"/><stop offset="25.4%" stop-color="#d02061"/><stop offset="35.5%" stop-color="#e01b56"/><stop offset="46.8%" stop-color="#ea1850"/><stop offset="61.6%" stop-color="#ed174e"/><stop offset="100%" stop-color="#f9e57e"/></linearGradient><linearGradient id="g" y2="97.00%" x2="21.40%" y1="14.10%" x1="80.03%"><stop offset="0%" stop-color="#7e3895"/><stop offset="7.1%" stop-color="#9b2f82"/><stop offset="16%" stop-color="#b9266f"/><stop offset="25.4%" stop-color="#d02061"/><stop offset="35.5%" stop-color="#e01b56"/><stop offset="46.8%" stop-color="#ea1850"/><stop offset="61.6%" stop-color="#ed174e"/><stop offset="100%" stop-color="#f9e57e"/></linearGradient><linearGradient id="h" y2="99.77%" x2="25.96%" y1="-5.11%" x1="76.15%"><stop offset="0%" stop-color="#7e3895"/><stop offset="9.6%" stop-color="#863893"/><stop offset="24.7%" stop-color="#9d398f"/><stop offset="43.3%" stop-color="#c13a88"/><stop offset="61.6%" stop-color="#ec3c80"/><stop offset="100%" stop-color="#f9e57e"/></linearGradient><linearGradient id="i" y2="97.23%" x2="35.20%" y1="35.25%" x1="54.70%"><stop offset="0%" stop-color="#7e3895"/><stop offset="7.1%" stop-color="#9b2f82"/><stop offset="16%" stop-color="#b9266f"/><stop offset="25.4%" stop-color="#d02061"/><stop offset="35.5%" stop-color="#e01b56"/><stop offset="46.8%" stop-color="#ea1850"/><stop offset="61.6%" stop-color="#ed174e"/><stop offset="100%" stop-color="#f9e57e"/></linearGradient><linearGradient id="j" y2="90.00%" x2="42.02%" y1="31.52%" x1="56.22%"><stop offset="0%" stop-color="#7e3895"/><stop offset="7.1%" stop-color="#9b2f82"/><stop offset="16%" stop-color="#b9266f"/><stop offset="25.4%" stop-color="#d02061"/><stop offset="35.5%" stop-color="#e01b56"/><stop offset="46.8%" stop-color="#ea1850"/><stop offset="61.6%" stop-color="#ed174e"/><stop offset="100%" stop-color="#f9e57e"/></linearGradient><linearGradient id="k" y2="154.57%" x2="32.01%" y1="22.62%" x1="54.60%"><stop offset="0%" stop-color="#7e3895"/><stop offset="7.1%" stop-color="#9b2f82"/><stop offset="16%" stop-color="#b9266f"/><stop offset="25.4%" stop-color="#d02061"/><stop offset="35.5%" stop-color="#e01b56"/><stop offset="46.8%" stop-color="#ea1850"/><stop offset="61.6%" stop-color="#ed174e"/><stop offset="100%" stop-color="#f9e57e"/></linearGradient><linearGradient id="l" y2="88.57%" x2="40.31%" y1="25.10%" x1="55.90%"><stop offset="0%" stop-color="#7e3895"/><stop offset="7.1%" stop-color="#9b2f82"/><stop offset="16%" stop-color="#b9266f"/><stop offset="25.4%" stop-color="#d02061"/><stop offset="35.5%" stop-color="#e01b56"/><stop offset="46.8%" stop-color="#ea1850"/><stop offset="61.6%" stop-color="#ed174e"/><stop offset="100%" stop-color="#f9e57e"/></linearGradient><linearGradient id="m" y2="155.35%" x2="33.37%" y1="12.64%" x1="55.99%"><stop offset="0%" stop-color="#7e3895"/><stop offset="7.1%" stop-color="#9b2f82"/><stop offset="16%" stop-color="#b9266f"/><stop offset="25.4%" stop-color="#d02061"/><stop offset="35.5%" stop-color="#e01b56"/><stop offset="46.8%" stop-color="#ea1850"/><stop offset="61.6%" stop-color="#ed174e"/><stop offset="100%" stop-color="#f9e57e"/></linearGradient><linearGradient id="n" y2="83.51%" x2="46.73%" y1="7.76%" x1="54.03%"><stop offset="0%" stop-color="#7e3895"/><stop offset="7.1%" stop-color="#9b2f82"/><stop offset="16%" stop-color="#b9266f"/><stop offset="25.4%" stop-color="#d02061"/><stop offset="35.5%" stop-color="#e01b56"/><stop offset="46.8%" stop-color="#ea1850"/><stop offset="61.6%" stop-color="#ed174e"/><stop offset="100%" stop-color="#f9e57e"/></linearGradient><linearGradient id="o" y2="115.33%" x2="44.60%" y1="16.08%" x1="52.65%"><stop offset="0%" stop-color="#7e3895"/><stop offset="7.1%" stop-color="#9b2f82"/><stop offset="16%" stop-color="#b9266f"/><stop offset="25.4%" stop-color="#d02061"/><stop offset="35.5%" stop-color="#e01b56"/><stop offset="46.8%" stop-color="#ea1850"/><stop offset="61.6%" stop-color="#ed174e"/><stop offset="100%" stop-color="#f9e57e"/></linearGradient><linearGradient id="p" y2="118.97%" x2="44.43%" y1="11.61%" x1="53.14%"><stop offset="0%" stop-color="#7e3895"/><stop offset="7.1%" stop-color="#9b2f82"/><stop offset="16%" stop-color="#b9266f"/><stop offset="25.4%" stop-color="#d02061"/><stop offset="35.5%" stop-color="#e01b56"/><stop offset="46.8%" stop-color="#ea1850"/><stop offset="61.6%" stop-color="#ed174e"/><stop offset="100%" stop-color="#f9e57e"/></linearGradient><linearGradient id="q" y2="159.90%" x2="37.38%" y1="1.18%" x1="55.59%"><stop offset="0%" stop-color="#7e3895"/><stop offset="7.1%" stop-color="#9b2f82"/><stop offset="16%" stop-color="#b9266f"/><stop offset="25.4%" stop-color="#d02061"/><stop offset="35.5%" stop-color="#e01b56"/><stop offset="46.8%" stop-color="#ea1850"/><stop offset="61.6%" stop-color="#ed174e"/><stop offset="100%" stop-color="#f9e57e"/></linearGradient><linearGradient id="r" y2="157.27%" x2="39.46%" y1="-0.82%" x1="54.91%"><stop offset="0%" stop-color="#7e3895"/><stop offset="7.1%" stop-color="#9b2f82"/><stop offset="16%" stop-color="#b9266f"/><stop offset="25.4%" stop-color="#d02061"/><stop offset="35.5%" stop-color="#e01b56"/><stop offset="46.8%" stop-color="#ea1850"/><stop offset="61.6%" stop-color="#ed174e"/><stop offset="100%" stop-color="#f9e57e"/></linearGradient><linearGradient id="s" y2="90.02%" x2="44.59%" y1="15.61%" x1="54.66%"><stop offset="0%" stop-color="#7e3895"/><stop offset="7.1%" stop-color="#9b2f82"/><stop offset="16%" stop-color="#b9266f"/><stop offset="25.4%" stop-color="#d02061"/><stop offset="35.5%" stop-color="#e01b56"/><stop offset="46.8%" stop-color="#ea1850"/><stop offset="61.6%" stop-color="#ed174e"/><stop offset="100%" stop-color="#f9e57e"/></linearGradient><linearGradient id="t" y2="160.24%" x2="41.21%" y1="-3.07%" x1="54.26%"><stop offset="0%" stop-color="#7e3895"/><stop offset="7.1%" stop-color="#9b2f82"/><stop offset="16%" stop-color="#b9266f"/><stop offset="25.4%" stop-color="#d02061"/><stop offset="35.5%" stop-color="#e01b56"/><stop offset="46.8%" stop-color="#ea1850"/><stop offset="61.6%" stop-color="#ed174e"/><stop offset="100%" stop-color="#f9e57e"/></linearGradient><linearGradient id="u" y2="92.21%" x2="45.24%" y1="17.51%" x1="53.69%"><stop offset="0%" stop-color="#7e3895"/><stop offset="7.1%" stop-color="#9b2f82"/><stop offset="16%" stop-color="#b9266f"/><stop offset="25.4%" stop-color="#d02061"/><stop offset="35.5%" stop-color="#e01b56"/><stop offset="46.8%" stop-color="#ea1850"/><stop offset="61.6%" stop-color="#ed174e"/><stop offset="100%" stop-color="#f9e57e"/></linearGradient><linearGradient id="v" y2="155.27%" x2="41.70%" y1="-4.35%" x1="53.82%"><stop offset="0%" stop-color="#7e3895"/><stop offset="7.1%" stop-color="#9b2f82"/><stop offset="16%" stop-color="#b9266f"/><stop offset="25.4%" stop-color="#d02061"/><stop offset="35.5%" stop-color="#e01b56"/><stop offset="46.8%" stop-color="#ea1850"/><stop offset="61.6%" stop-color="#ed174e"/><stop offset="100%" stop-color="#f9e57e"/></linearGradient><linearGradient id="w" y2="98.65%" x2="45.13%" y1="20.91%" x1="52.86%"><stop offset="0%" stop-color="#7e3895"/><stop offset="7.1%" stop-color="#9b2f82"/><stop offset="16%" stop-color="#b9266f"/><stop offset="25.4%" stop-color="#d02061"/><stop offset="35.5%" stop-color="#e01b56"/><stop offset="46.8%" stop-color="#ea1850"/><stop offset="61.6%" stop-color="#ed174e"/><stop offset="100%" stop-color="#f9e57e"/></linearGradient><linearGradient id="x" y2="-83.25%" x2="116.75%" y1="73.49%" x1="18.92%"><stop offset="0%" stop-color="#693594"/><stop offset="10.6%" stop-color="#892e83"/><stop offset="26.5%" stop-color="#b4246c"/><stop offset="40.9%" stop-color="#d31d5c"/><stop offset="53.1%" stop-color="#e61952"/><stop offset="61.6%" stop-color="#ed174e"/><stop offset="100%" stop-color="#f9e57e"/></linearGradient><linearGradient id="y" y2="-58.59%" x2="110.45%" y1="79.89%" x1="27.65%"><stop offset="0%" stop-color="#693594"/><stop offset="10.6%" stop-color="#892e83"/><stop offset="26.5%" stop-color="#b4246c"/><stop offset="40.9%" stop-color="#d31d5c"/><stop offset="53.1%" stop-color="#e61952"/><stop offset="61.6%" stop-color="#ed174e"/><stop offset="100%" stop-color="#f9e57e"/></linearGradient><linearGradient id="z" y2="-54.34%" x2="91.19%" y1="76.95%" x1="38.01%"><stop offset="0%" stop-color="#693594"/><stop offset="10.6%" stop-color="#892e83"/><stop offset="26.5%" stop-color="#b4246c"/><stop offset="40.9%" stop-color="#d31d5c"/><stop offset="53.1%" stop-color="#e61952"/><stop offset="61.6%" stop-color="#ed174e"/><stop offset="100%" stop-color="#f9e57e"/></linearGradient><linearGradient id="AA" y2="-44.39%" x2="87.78%" y1="82.66%" x1="32.79%"><stop offset="0%" stop-color="#693594"/><stop offset="10.6%" stop-color="#892e83"/><stop offset="26.5%" stop-color="#b4246c"/><stop offset="40.9%" stop-color="#d31d5c"/><stop offset="53.1%" stop-color="#e61952"/><stop offset="61.6%" stop-color="#ed174e"/><stop offset="100%" stop-color="#f9e57e"/></linearGradient><linearGradient id="AB" y2="-52.03%" x2="85.15%" y1="78.54%" x1="40.52%"><stop offset="0%" stop-color="#693594"/><stop offset="10.6%" stop-color="#892e83"/><stop offset="26.5%" stop-color="#b4246c"/><stop offset="40.9%" stop-color="#d31d5c"/><stop offset="53.1%" stop-color="#e61952"/><stop offset="61.6%" stop-color="#ed174e"/><stop offset="100%" stop-color="#f9e57e"/></linearGradient><linearGradient id="AC" y2="-34.28%" x2="78.70%" y1="87.65%" x1="34.04%"><stop offset="0%" stop-color="#693594"/><stop offset="10.6%" stop-color="#892e83"/><stop offset="26.5%" stop-color="#b4246c"/><stop offset="40.9%" stop-color="#d31d5c"/><stop offset="53.1%" stop-color="#e61952"/><stop offset="61.6%" stop-color="#ed174e"/><stop offset="100%" stop-color="#f9e57e"/></linearGradient><linearGradient id="AD" y2="-44.45%" x2="78.04%" y1="77.99%" x1="41.11%"><stop offset="0%" stop-color="#693594"/><stop offset="10.6%" stop-color="#892e83"/><stop offset="26.5%" stop-color="#b4246c"/><stop offset="40.9%" stop-color="#d31d5c"/><stop offset="53.1%" stop-color="#e61952"/><stop offset="61.6%" stop-color="#ed174e"/><stop offset="100%" stop-color="#f9e57e"/></linearGradient><linearGradient id="AE" y2="-43.52%" x2="79.99%" y1="82.12%" x1="40.72%"><stop offset="0%" stop-color="#693594"/><stop offset="10.6%" stop-color="#892e83"/><stop offset="26.5%" stop-color="#b4246c"/><stop offset="40.9%" stop-color="#d31d5c"/><stop offset="53.1%" stop-color="#e61952"/><stop offset="61.6%" stop-color="#ed174e"/><stop offset="100%" stop-color="#f9e57e"/></linearGradient><linearGradient id="AF" y2="-29.36%" x2="77.63%" y1="98.19%" x1="34.00%"><stop offset="0%" stop-color="#693594"/><stop offset="10.6%" stop-color="#892e83"/><stop offset="26.5%" stop-color="#b4246c"/><stop offset="40.9%" stop-color="#d31d5c"/><stop offset="53.1%" stop-color="#e61952"/><stop offset="61.6%" stop-color="#ed174e"/><stop offset="100%" stop-color="#f9e57e"/></linearGradient><linearGradient id="AG" y2="-51.10%" x2="78.25%" y1="85.72%" x1="40.18%"><stop offset="0%" stop-color="#693594"/><stop offset="10.6%" stop-color="#892e83"/><stop offset="26.5%" stop-color="#b4246c"/><stop offset="40.9%" stop-color="#d31d5c"/><stop offset="53.1%" stop-color="#e61952"/><stop offset="61.6%" stop-color="#ed174e"/><stop offset="100%" stop-color="#f9e57e"/></linearGradient><linearGradient id="AH" y2="-27.01%" x2="74.65%" y1="106.26%" x1="32.33%"><stop offset="0%" stop-color="#693594"/><stop offset="10.6%" stop-color="#892e83"/><stop offset="26.5%" stop-color="#b4246c"/><stop offset="40.9%" stop-color="#d31d5c"/><stop offset="53.1%" stop-color="#e61952"/><stop offset="61.6%" stop-color="#ed174e"/><stop offset="100%" stop-color="#f9e57e"/></linearGradient><linearGradient id="AI" y2="-48.54%" x2="78.04%" y1="90.00%" x1="39.39%"><stop offset="0%" stop-color="#693594"/><stop offset="10.6%" stop-color="#892e83"/><stop offset="26.5%" stop-color="#b4246c"/><stop offset="40.9%" stop-color="#d31d5c"/><stop offset="53.1%" stop-color="#e61952"/><stop offset="61.6%" stop-color="#ed174e"/><stop offset="100%" stop-color="#f9e57e"/></linearGradient><linearGradient id="AJ" y2="-28.49%" x2="73.18%" y1="113.25%" x1="31.33%"><stop offset="0%" stop-color="#693594"/><stop offset="10.6%" stop-color="#892e83"/><stop offset="26.5%" stop-color="#b4246c"/><stop offset="40.9%" stop-color="#d31d5c"/><stop offset="53.1%" stop-color="#e61952"/><stop offset="61.6%" stop-color="#ed174e"/><stop offset="100%" stop-color="#f9e57e"/></linearGradient><linearGradient id="AK" y2="-52.58%" x2="72.29%" y1="97.56%" x1="40.32%"><stop offset="0%" stop-color="#693594"/><stop offset="10.6%" stop-color="#892e83"/><stop offset="26.5%" stop-color="#b4246c"/><stop offset="40.9%" stop-color="#d31d5c"/><stop offset="53.1%" stop-color="#e61952"/><stop offset="61.6%" stop-color="#ed174e"/><stop offset="100%" stop-color="#f9e57e"/></linearGradient><linearGradient id="AL" y2="-23.47%" x2="69.03%" y1="127.80%" x1="28.26%"><stop offset="0%" stop-color="#693594"/><stop offset="10.6%" stop-color="#892e83"/><stop offset="26.5%" stop-color="#b4246c"/><stop offset="40.9%" stop-color="#d31d5c"/><stop offset="53.1%" stop-color="#e61952"/><stop offset="61.6%" stop-color="#ed174e"/><stop offset="100%" stop-color="#f9e57e"/></linearGradient><linearGradient id="AM" y2="-45.53%" x2="68.76%" y1="105.16%" x1="39.42%"><stop offset="0%" stop-color="#693594"/><stop offset="10.6%" stop-color="#892e83"/><stop offset="26.5%" stop-color="#b4246c"/><stop offset="40.9%" stop-color="#d31d5c"/><stop offset="53.1%" stop-color="#e61952"/><stop offset="61.6%" stop-color="#ed174e"/><stop offset="100%" stop-color="#f9e57e"/></linearGradient><linearGradient id="AN" y2="-46.05%" x2="67.68%" y1="108.99%" x1="38.58%"><stop offset="0%" stop-color="#693594"/><stop offset="10.6%" stop-color="#892e83"/><stop offset="26.5%" stop-color="#b4246c"/><stop offset="40.9%" stop-color="#d31d5c"/><stop offset="53.1%" stop-color="#e61952"/><stop offset="61.6%" stop-color="#ed174e"/><stop offset="100%" stop-color="#f9e57e"/></linearGradient><linearGradient id="AO" y2="-33.38%" x2="65.90%" y1="117.39%" x1="39.21%"><stop offset="0%" stop-color="#693594"/><stop offset="10.6%" stop-color="#892e83"/><stop offset="26.5%" stop-color="#b4246c"/><stop offset="40.9%" stop-color="#d31d5c"/><stop offset="53.1%" stop-color="#e61952"/><stop offset="61.6%" stop-color="#ed174e"/><stop offset="100%" stop-color="#f9e57e"/></linearGradient><linearGradient id="AP" y2="-50.56%" x2="99.21%" y1="87.50%" x1="31.92%"><stop offset="0%" stop-color="#693594"/><stop offset="10.6%" stop-color="#892e83"/><stop offset="26.5%" stop-color="#b4246c"/><stop offset="40.9%" stop-color="#d31d5c"/><stop offset="53.1%" stop-color="#e61952"/><stop offset="61.6%" stop-color="#ed174e"/><stop offset="100%" stop-color="#f9e57e"/></linearGradient><linearGradient id="AQ" y2="-32.99%" x2="90.09%" y1="105.59%" x1="24.91%"><stop offset="0%" stop-color="#693594"/><stop offset="10.6%" stop-color="#892e83"/><stop offset="26.5%" stop-color="#b4246c"/><stop offset="40.9%" stop-color="#d31d5c"/><stop offset="53.1%" stop-color="#e61952"/><stop offset="61.6%" stop-color="#ed174e"/><stop offset="100%" stop-color="#f9e57e"/></linearGradient><linearGradient id="AR" y2="198.61%" x2="-150.22%" y1="0.73%" x1="141.05%"><stop offset="0%" stop-color="#d4e5ee"/><stop offset="7.2%" stop-color="#ccdee8"/><stop offset="18.6%" stop-color="#b5cbd7"/><stop offset="32.7%" stop-color="#90abbc"/><stop offset="48.8%" stop-color="#5e8096"/><stop offset="55.4%" stop-color="#476c85"/><stop offset="59.4%" stop-color="#5c7e95"/><stop offset="68.5%" stop-color="#87a3b5"/><stop offset="77.3%" stop-color="#a9c0ce"/><stop offset="85.7%" stop-color="#c1d4df"/><stop offset="93.5%" stop-color="#cfe1ea"/><stop offset="100%" stop-color="#d4e5ee"/></linearGradient><linearGradient id="AS" y2="158.74%" x2="29.40%" y1="-268.72%" x1="110.68%"><stop offset="0%" stop-color="#d4e5ee"/><stop offset="7.2%" stop-color="#ccdee8"/><stop offset="18.6%" stop-color="#b5cbd7"/><stop offset="32.7%" stop-color="#90abbc"/><stop offset="48.8%" stop-color="#5e8096"/><stop offset="55.4%" stop-color="#476c85"/><stop offset="59.4%" stop-color="#5c7e95"/><stop offset="68.5%" stop-color="#87a3b5"/><stop offset="77.3%" stop-color="#a9c0ce"/><stop offset="85.7%" stop-color="#c1d4df"/><stop offset="93.5%" stop-color="#cfe1ea"/><stop offset="100%" stop-color="#d4e5ee"/></linearGradient><linearGradient id="AT" y2="303.14%" x2="-26.33%" y1="-125.92%" x1="103.00%"><stop offset="0%" stop-color="#d4e5ee"/><stop offset="7.2%" stop-color="#ccdee8"/><stop offset="18.6%" stop-color="#b5cbd7"/><stop offset="32.7%" stop-color="#90abbc"/><stop offset="48.8%" stop-color="#5e8096"/><stop offset="55.4%" stop-color="#476c85"/><stop offset="59.4%" stop-color="#5c7e95"/><stop offset="68.5%" stop-color="#87a3b5"/><stop offset="77.3%" stop-color="#a9c0ce"/><stop offset="85.7%" stop-color="#c1d4df"/><stop offset="93.5%" stop-color="#cfe1ea"/><stop offset="100%" stop-color="#d4e5ee"/></linearGradient><linearGradient id="AU" y2="218.42%" x2="-222.00%" y1="-23.92%" x1="155.95%"><stop offset="0%" stop-color="#d4e5ee"/><stop offset="7.2%" stop-color="#ccdee8"/><stop offset="18.6%" stop-color="#b5cbd7"/><stop offset="32.7%" stop-color="#90abbc"/><stop offset="48.8%" stop-color="#5e8096"/><stop offset="55.4%" stop-color="#476c85"/><stop offset="59.4%" stop-color="#5c7e95"/><stop offset="68.5%" stop-color="#87a3b5"/><stop offset="77.3%" stop-color="#a9c0ce"/><stop offset="85.7%" stop-color="#c1d4df"/><stop offset="93.5%" stop-color="#cfe1ea"/><stop offset="100%" stop-color="#d4e5ee"/></linearGradient><linearGradient id="AV" y2="216.23%" x2="-46.54%" y1="-20.82%" x1="99.34%"><stop offset="0%" stop-color="#d4e5ee"/><stop offset="7.2%" stop-color="#ccdee8"/><stop offset="18.6%" stop-color="#b5cbd7"/><stop offset="32.7%" stop-color="#90abbc"/><stop offset="48.8%" stop-color="#5e8096"/><stop offset="55.4%" stop-color="#476c85"/><stop offset="59.4%" stop-color="#5c7e95"/><stop offset="68.5%" stop-color="#87a3b5"/><stop offset="77.3%" stop-color="#a9c0ce"/><stop offset="85.7%" stop-color="#c1d4df"/><stop offset="93.5%" stop-color="#cfe1ea"/><stop offset="100%" stop-color="#d4e5ee"/></linearGradient><linearGradient id="AW" y2="218.52%" x2="-121.12%" y1="-19.10%" x1="115.54%"><stop offset="0%" stop-color="#d4e5ee"/><stop offset="7.2%" stop-color="#ccdee8"/><stop offset="18.6%" stop-color="#b5cbd7"/><stop offset="32.7%" stop-color="#90abbc"/><stop offset="48.8%" stop-color="#5e8096"/><stop offset="55.4%" stop-color="#476c85"/><stop offset="59.4%" stop-color="#5c7e95"/><stop offset="68.5%" stop-color="#87a3b5"/><stop offset="77.3%" stop-color="#a9c0ce"/><stop offset="85.7%" stop-color="#c1d4df"/><stop offset="93.5%" stop-color="#cfe1ea"/><stop offset="100%" stop-color="#d4e5ee"/></linearGradient><linearGradient id="AX" y2="666.02%" x2="17.55%" y1="-1172.25%" x1="106.91%"><stop offset="0%" stop-color="#d4e5ee"/><stop offset="7.2%" stop-color="#ccdee8"/><stop offset="18.6%" stop-color="#b5cbd7"/><stop offset="32.7%" stop-color="#90abbc"/><stop offset="48.8%" stop-color="#5e8096"/><stop offset="55.4%" stop-color="#476c85"/><stop offset="59.4%" stop-color="#5c7e95"/><stop offset="68.5%" stop-color="#87a3b5"/><stop offset="77.3%" stop-color="#a9c0ce"/><stop offset="85.7%" stop-color="#c1d4df"/><stop offset="93.5%" stop-color="#cfe1ea"/><stop offset="100%" stop-color="#d4e5ee"/></linearGradient><linearGradient id="AY" y2="148.52%" x2="33.20%" y1="-262.06%" x1="102.95%"><stop offset="0%" stop-color="#d4e5ee"/><stop offset="7.2%" stop-color="#ccdee8"/><stop offset="18.6%" stop-color="#b5cbd7"/><stop offset="32.7%" stop-color="#90abbc"/><stop offset="48.8%" stop-color="#5e8096"/><stop offset="55.4%" stop-color="#476c85"/><stop offset="59.4%" stop-color="#5c7e95"/><stop offset="68.5%" stop-color="#87a3b5"/><stop offset="77.3%" stop-color="#a9c0ce"/><stop offset="85.7%" stop-color="#c1d4df"/><stop offset="93.5%" stop-color="#cfe1ea"/><stop offset="100%" stop-color="#d4e5ee"/></linearGradient><linearGradient id="AZ" y2="106.76%" x2="27.68%" y1="-175.46%" x1="120.24%"><stop offset="0%" stop-color="#d4e5ee"/><stop offset="7.2%" stop-color="#ccdee8"/><stop offset="18.6%" stop-color="#b5cbd7"/><stop offset="32.7%" stop-color="#90abbc"/><stop offset="48.8%" stop-color="#5e8096"/><stop offset="55.4%" stop-color="#476c85"/><stop offset="59.4%" stop-color="#5c7e95"/><stop offset="68.5%" stop-color="#87a3b5"/><stop offset="77.3%" stop-color="#a9c0ce"/><stop offset="85.7%" stop-color="#c1d4df"/><stop offset="93.5%" stop-color="#cfe1ea"/><stop offset="100%" stop-color="#d4e5ee"/></linearGradient><linearGradient id="Aa" y2="104.38%" x2="3.72%" y1="-159.69%" x1="163.94%"><stop offset="0%" stop-color="#d4e5ee"/><stop offset="7.2%" stop-color="#ccdee8"/><stop offset="18.6%" stop-color="#b5cbd7"/><stop offset="32.7%" stop-color="#90abbc"/><stop offset="48.8%" stop-color="#5e8096"/><stop offset="55.4%" stop-color="#476c85"/><stop offset="59.4%" stop-color="#5c7e95"/><stop offset="68.5%" stop-color="#87a3b5"/><stop offset="77.3%" stop-color="#a9c0ce"/><stop offset="85.7%" stop-color="#c1d4df"/><stop offset="93.5%" stop-color="#cfe1ea"/><stop offset="100%" stop-color="#d4e5ee"/></linearGradient></defs><symbol id="Ab" overflow="visible"><g stroke="#d9d9d9" fill="#dcddde" class="B"><path d="M77.004 20.309c-6.227-.857-29.212-2.017-39.466-3.697-8.248-1.349-16.303-3.805-23.99-6.383-1.987-.667-5.511-2.036-7.759-3.247C4.363 5.893.935 4.279 0 2.748c14.902 7.075 20.895 9.023 38.382 12.561 7.088 1.456 32.888 3.545 38.622 5z" class="C"/><g class="D"><path d="M46.948 18.03l-.352-.23-.322-.104.545.034.322.035.316.035.321.036.322.035.321.017.281.035.44.404.422.386.37.387.335.387.334.367.615.72.321.334.316.334.335.299.352.299.404.276.422.264.475.246.528.228.598.193-.668.229-.651.055-.651-.106-.651-.264-.634-.352-.634-.456-.599-.525-.597-.563-.563-.579-.528-.581-.505-.563-.475-.527-.44-.439z"/><path d="M49.569 18.784l-.44-.439-.457-.404.175.017h.194l.176.018.193.017.195.017.193.036.193.016.193.018.193.017.211.017.194.036.422.034.211.017h.211l.211.018.159.246.193.299.247.35.264.37.321.404.335.404.352.422.37.404.387.387.386.37.406.334.387.275.388.228.387.159.369.092h.353l-.775.125-.721.017-.668-.069-.632-.157-.581-.246-.528-.299-.528-.351-.475-.404-.475-.422-.44-.456-.863-.967-.439-.474z"/><path d="M52.788 19.603l-.475-.65-.494-.738.299-.001.282.018.563.07.276.036.282.033h.65l.283.282.263.299.265.281.264.316.264.299.246.322.264.299.248.321.526.597.282.299.265.282.897.79.335.229-.44.053-.422.035-.404-.017-.404-.07-.405-.092-.387-.158-.386-.194-.405-.264-.404-.299-.405-.351-.405-.422-.422-.457-.44-.546zm2.044-.6l-.322-.335-.282-.281 1.882.175.212.276.229.281.21.282.211.276.211.281.23.282.211.276.228.282.247.263.246.276.246.265.282.262.281.264.3.265.322.247.334.243-.334.178-.368.071-.371-.054-.386-.157-.388-.23-.404-.322-.404-.351-.406-.421-.386-.441-.406-.456-.369-.458-.37-.44-.352-.439z"/><path d="M56.938 19.605l-.37-.528-.369-.505.316.053.246.017.176.017.158.018.157.018h.159l.23.017.299.017.334.474.334.438.334.423.37.369.352.333.352.321.369.276.352.247.352.21.353.194.333.14.321.124.322.106.282.07.282.035.247.017-.551.353-.505.23-.505.106h-.493l-.474-.092-.457-.157-.439-.248-.441-.315-.422-.387-.424-.404-.386-.476-.406-.473-.387-.505z"/><path d="M58.644 19.621l-.335-.441-.321-.456.352.018.388.034.368.035.37.018.322.035.264.017.193.018.088.017.035.036.092.092.141.14.175.177.193.211.247.247.265.263.297.283.336.279.35.298.353.282.387.281.404.263.404.246.423.211.422.175-.563.07-.545.037-.528-.036-.505-.069-.476-.104-.474-.158-.44-.194-.422-.246-.422-.263-.388-.299-.387-.334-.369-.369-.352-.387z"/><path d="M60.93 19.619l-.321-.353-.298-.351h.211l.264.018.276.016h.299l.282.034.282.018.228.018.194.034v.037l.071.092.175.159.247.193.299.246.351.281.388.299.405.298.422.315.422.318.404.299.389.264.352.246.322.193.247.14.175.088-.474.092-.458.035-.474-.052-.475-.088-.475-.156-.456-.194-.457-.229-.458-.281-.422-.297-.422-.322-.404-.333-.388-.352-.37-.368z"/><path d="M62.582 19.319l-.194-.174-.088-.071.229.018.511.033.263.018.282.033.562.037.3.017.316.193.316.194.617.404.321.209.3.229.316.211.3.211.62.439.316.211.299.211.634.387.299.193.322.176-.281.282-.37.122-.457.001-.505-.122-.564-.211-.579-.297-.615-.352-.599-.386-.598-.422-.563-.421-.527-.404-.459-.387-.404-.316z"/><path d="M65.819 20.107l-.634-.422-.704-.439.3.018.334.018h.298l.299.017.264.017.211.018.141.018.053.016.036.053.106.106.159.14.21.193.264.228.3.266.321.262.369.282.37.276.387.282.387.245.405.247.386.21.387.176.37.123.335.071-.299.105-.299.053-.298.017-.3-.046-.299-.09-.321-.121-.334-.176-.352-.211-.387-.246-.404-.275-.441-.316-.492-.335-.545-.369z"/><path d="M66.646 19.631l-.176-.157-.107-.107.282.018.265.018.262.017.264.035.246.018.265.017.276.034.281.018.211.193.23.193.21.194.23.211.229.229.228.211.246.211.248.211.491.387.265.174.245.157.282.138.264.122.281.089.282.07-.404.158-.44.07-.458-.033-.474-.123-.492-.176-.474-.229-.494-.279-.457-.322-.44-.316-.422-.334-.387-.316-.334-.321-.3-.263zm2.531.456l-.322-.299-.322-.282.194.018.211.035.474.035.264.034.281.018.299.034.282.017.088.211.123.211.124.194.159.193.175.176.387.351.228.141.23.14.247.123.263.123.264.088.281.071.276.069.3.035.298.018-.351.246-.35.159-.352.071-.352.018-.353-.07-.351-.107-.352-.157-.351-.211-.335-.229-.352-.276-.335-.282-.668-.597z"/><path d="M70.866 20.292l-.159-.299-.106-.299.211.018.211.017.228.035.23.018.227.017.505.035.3.017.123.175.141.177.14.158.141.141.141.14.159.106.157.124.159.106.174.092.194.088.193.092.211.071.211.07.228.07.246.053.248.071-.3.122-.322.089-.333.053-.37.001-.352-.018-.387-.053-.738-.21-.353-.157-.334-.176-.298-.194-.282-.227-.246-.248z"/><path d="M72.819 20.296l-.158-.211-.141-.229.299.036.176.017.159.017.157.018.141.017h.246v.07l.158.14.264.194.352.229.421.228.422.23.422.174.37.106-.106.106-.159.07-.193.036h-.211l-.246-.017-.263-.052-.282-.089-.281-.092-.281-.124-.282-.141-.282-.157-.247-.176-.246-.193z"/><path d="M73.767 20.066l-.092-.07-.017-.035 1.371.157.106.07.177.088.21.106.23.106.246.124.228.092.211.092.176.053-.036.246-.088.158-.14.072-.193.035-.23-.035-.264-.092-.263-.106-.282-.14-.282-.159-.528-.35-.211-.158-.193-.141z"/><path d="M75.909 20.556l-.334-.174-.299-.159-.246-.105.299.018.264.018.246.016.229.017.211.018.228.016.229.037.265.052-.054.334-.157.159h-.247l-.322-.092z"/><path d="M75.965 19.677l-.351.089-.299.106-.23.071.3.052.263.035.228.052.23.035.21.052.211.053.247.054.264.07.018-.387-.159-.246-.247-.089-.334-.015zm-27.366-3.83l-.493.404-.505.371.176.034.193.017.193.018.176.035.194.018.193.017.211.017.193.018.194.016.211.018.21.035.405.035.21.034.229.017.211.035.175-.245.227-.3.264-.351.316-.353.334-.387.37-.387.404-.388.404-.37.441-.351.438-.316.44-.282.458-.228.439-.177.44-.106.439-.018.404.07-.773-.298-.735-.193-.685-.052-.651.035-.633.138-.58.211-.563.299-.545.335-.528.388-.505.423-.508.441-.494.457-.491.44z"/><path d="M51.941 15.635l-.544.651-.58.721.321.018.281.033.264.018.245.035.247.035.263.035.3.052.351.054.322-.264.298-.281.322-.3.281-.3.597-.597.282-.3.298-.299.299-.281.316-.264.299-.264.316-.264.334-.229.352-.194.352-.193.37-.159-.441-.158-.422-.104-.403-.07-.424-.035-.403.035-.422.088-.404.123-.422.194-.439.247-.441.322-.457.369-.474.441-.505.505z"/><path d="M53.736 16.688l-.335.321-.322.264 1.918.228.246-.281.246-.282.229-.281.245-.281.247-.282.245-.299.509-.551.563-.527.299-.247.316-.229.334-.228.352-.194.369-.176.387-.159-.333-.275-.371-.141-.404-.034-.404.092-.44.176-.439.247-.457.321-.457.369-.457.404-.456.422-.439.422-.422.44-.386.404z"/><path d="M55.915 16.458l-.422.505-.422.505.335.018.276.017.229.018.422.07.23.034.263.036.318.052.369-.475.351-.422.369-.387.352-.334.367-.281.352-.247.334-.211.352-.175.334-.138.316-.106.334-.088.322-.07.298-.037.3-.034h.298l.282-.001-.528-.505-.505-.368-.493-.245-.493-.141-.492-.017-.475.071-.474.177-.457.229-.456.322-.439.369-.457.422-.862.932z"/><path d="M57.908 16.802l-.37.423-.369.457.369.053.422.046.846.106.386.052.298.036.23.017.092-.001.034-.035.089-.071.123-.123.157-.159.194-.193.227-.195.264-.228.299-.247.334-.23.351-.246.388-.23.422-.227.422-.195.457-.176.475-.159.493-.106-.582-.211-.545-.158-.545-.092-.505-.035-.505.001-.492.071-.475.107-.457.159-.457.193-.422.247-.439.282-.403.321-.405.353z"/><path d="M60.488 17.351l-.367.334-.333.335.227.017.281.035.651.07.335.034.299.035.264.017h.193v-.035l.088-.092.175-.123.264-.177.321-.193.37-.23.423-.247.439-.245.438-.248.457-.247.458-.228.421-.21.388-.178.35-.141.283-.089.227-.053-.475-.192-.475-.141-.505-.053-.493.001-.505.054-.505.106-.492.158-.505.194-.474.229-.475.247-.918.598-.405.318z"/><path d="M62.299 18.036l-.228.157-.106.054.247.053.276.036.3.034.321.017.334.036.335.034.632.106.335-.159.316-.16.335-.175.316-.176.321-.159.316-.176.334-.176.316-.174.321-.161.315-.175.335-.157.316-.14.321-.16.333-.14.334-.138.334-.122-.247-.387-.369-.229-.458-.086h-.527l-.581.123-.634.194-.668.264-.65.299-.668.335-.615.352-.58.335-.528.334-.438.282zm4.273.472l-.193.141-.106.089.281.034.263.035.228.035.23.017.246.017.228.035.265.035.275.034.247-.156.247-.16.264-.193.264-.176.276-.194.282-.193.281-.194.563-.352.298-.141.299-.14.282-.107.298-.092.282-.054h.281l.281.017-.388-.276-.439-.159-.457-.069h-.491l-.512.092-.527.16-.505.193-.505.23-.475.264-.474.264-.791.528-.333.23z"/><path d="M65.853 17.821l-.689.351-.758.353.282.018.322.034.321.036.322.051.281.036.21.036.159.016.07-.016.035-.036.124-.092.158-.138.211-.157.263-.194.321-.211.335-.23.369-.23.808-.457.439-.195.44-.176.441-.14.439-.09.422-.046.422-.001-.3-.194-.316-.14-.3-.071-.316-.034-.321.017-.334.07-.371.124-.385.141-.422.194-.441.211-.491.264-.527.282-.581.299zm3.201.643l-.37.265-.369.228.211.035.229.018.264.053.282.033.299.037.321.033.299.036.3.035.106-.229.123-.194.14-.194.176-.175.176-.158.193-.124.23-.124.228-.106.246-.092.263-.071.264-.053.282-.037.298-.017h.299l.615.069-.322-.351-.333-.264-.335-.175-.352-.106-.352-.017-.369.035-.388.089-.369.124-.386.194-.37.193-.387.246-.387.248-.387.246zm3.799.617l-.194.194-.174.211.157.035.194.035.193.035.194.034.175.017.141.018h.14l.07-.036.174-.106.3-.141.351-.156.404-.138.457-.124.439-.071.441.017-.089-.14-.141-.123-.194-.104-.211-.071-.246-.052-.281-.017h-.281l-.322.017-.299.053-.321.071-.299.105-.276.124-.265.14z"/><path d="M73.767 19.592l-.092.07-.036.017 1.407.245.124-.052.193-.054.211-.07.247-.071.246-.053.246-.034h.229l.194.034.016-.275-.07-.211-.124-.141-.193-.088-.228-.036-.264.018-.281.035-.321.071-.597.211-.282.106-.246.106-.211.106zm-2.92-.931l-.193.282-.158.321.23.018.21.036.23.016.247.035.246.036.264.017.281.053.299.033.106-.156.123-.141.14-.123.157-.124.176-.106.193-.106.194-.088.211-.07.211-.071.228-.052.211-.035.23-.018.228-.018h.228l.23.018.211.034-.281-.229-.299-.176-.334-.157-.37-.106-.37-.071-.368-.046h-.388l-.386.033-.369.072-.369.124-.335.141-.322.175-.299.211zm-58.475-4.035l.422.246.551.176-.089-.265-.054-.275-.052-.276-.035-.322-.018-.321v-.333l.017-.321.017-.335.035-.334.034-.333.053-.321.07-.299.052-.299.071-.264.092-.264.071-.229-.088-.034-.071-.018-.092-.035-.072-.016-.071-.035-.069-.018-.088-.037-.092-.035-.035.054-.089.141-.122.228-.158.281-.177.334-.175.37-.159.422-.139.422-.104.441-.037.422.018.422.089.387.194.353z"/><path d="M14.836 16.313l.193.017h.176l-.211-.563-.088-.321-.071-.322-.07-.352-.054-.35-.053-.352-.035-.369-.018-.37v-.387l.018-.369.034-.387.052-.369.071-.387.092-.352.106-.37-.21-.071-.213-.07-.194-.07-.192-.053-.159-.052-.175-.053-.141-.035-.124-.036-.245.964-.175.879-.092.756-.017.668.035.58.106.492.14.422.159.351.211.281.228.228.229.159.227.123.248.092zm1.46.86l.441.018.509-.14-.193-.318-.193-.333-.159-.352-.141-.333-.106-.369-.107-.353-.07-.369-.071-.37-.035-.369-.018-.386v-.369l.034-.387.035-.387.07-.37.07-.388.106-.369-.176-.07-.21-.07-.634-.21-.175-.07-.159-.054-.123-.034-.106.351-.104.441-.071.493-.033.545-.018.598.001.597.053.597.088.582.125.545.158.505.23.44.263.351.335.264z"/><path d="M16.239 12.339l.106-.581.157-.546.194.07.195.071.209.053.213.07.21.071.228.071.211.07.228.07v.369.404l.018.459.036.949.017.493.053.505.052.474.072.475.07.439.107.423.123.37.142.316.176.265.193.193.211.122-.476.037-.458-.071-.404-.174-.369-.246-.352-.335-.299-.404-.246-.457-.23-.505-.176-.545-.138-.581-.088-.597-.036-.598v-.597z"/><path d="M19.67 14.252v.473l.037.932.035.458.053.456.089.422.092.387.14.368.158.334.194.283.246.227-.509-.123-.422-.175-.352-.245-.298-.282-.247-.334-.194-.386-.14-.422-.107-.441-.072-.492-.052-.505-.037-1.091-.035-1.142v-.58l-.036-.598.176.071.176.052.157.053.177.035.175.053.159.052.176.053.175.071.036.351.018.386.018.422.018.44z"/><path d="M19.669 13.233l-.035-.528-.037-.491.193.052.176.052.157.054.178.052.174.052.158.053.176.035.194.052-.018.052-.034.123-.037.194-.052.247-.034.316-.036.352-.018.404.018.457.052.475.09.526.159.551.193.563.282.581.352.615.422.597.528.614-.703-.034-.599-.14-.491-.228-.405-.3-.321-.386-.231-.44-.193-.491-.124-.546-.071-.562-.052-.579-.018-.599-.001-1.178z"/><path d="M20.777 13.952l.07-.668.141-.669 1.671.527-.018.281-.017.335.017.367.037.423.052.44.088.475.089.492.141.505.159.505.193.493.211.491.264.475.281.457.335.422.369.387.406.333-.475.088-.475-.034-.457-.159-.457-.247-.439-.333-.422-.404-.388-.491-.354-.545-.299-.581-.265-.633-.212-.669-.138-.689-.088-.687z"/><path d="M25.44 16.076l.035.476.053.457.07.457.092.439.107.422.141.42.158.387.194.371.229.316.246.298.299.265-.351.053-.369-.018-.369-.092-.369-.158-.369-.23-.371-.276-.352-.351-.352-.439-.321-.475-.281-.563-.265-.615-.227-.703-.178-.758-.14-.807-.09-.898-.035-.949.264.092.334.088.371.123.386.106.37.124.369.104.322.092.247.053.035.404.019.439.034.441.018.457z"/><path d="M25.368 14.828l-.034-.505-.054-.457.246.053.213.053.192.07.192.052.213.054.194.046.228.071.264.07.054.477.051.456.053.457.072.439.054.441.07.422.092.404.09.404.123.388.141.386.175.37.194.369.246.367.264.353.322.333.354.334-.792.037-.668-.071-.581-.192-.458-.3-.386-.369-.318-.439-.228-.492-.177-.562-.141-.562-.092-.616-.107-1.195-.017-.598z"/><path d="M27.141 15.283l-.053-.493-.037-.422.248.054.211.052.193.053.194.035.175.052.195.034.227.07.265.053.088.687.106.651.124.597.123.563.138.505.158.491.176.422.176.406.176.369.195.333.211.282.194.264.211.246.211.193.229.176.211.159-.704.036-.615-.089-.546-.192-.476-.299-.404-.37-.351-.439-.283-.508-.247-.546-.21-.563-.159-.597-.124-.581-.089-.597-.092-.563z"/><path d="M28.885 15.686l-.07-.473-.072-.423.211.035.211.053.212.052.211.053.212.053.21.051.211.053.228.054.018.332.054.37.07.387.123.422.124.457.175.439.177.474.193.458.23.457.247.44.245.404.265.386.264.37.282.321.298.263.283.211-.669.036-.598-.092-.528-.195-.491-.281-.404-.367-.37-.422-.321-.493-.282-.525-.246-.551-.194-.58-.159-.58-.141-.579-.124-.551z"/><path d="M30.504 15.668l-.052-.299v-.175l.263.046.247.053.246.07.246.053.246.07.23.052.228.053.23.036.088.298.197.755.125.457.141.475.157.491.176.491.195.512.211.491.228.456.247.441.264.387.3.332.298.264.334.194.351.106-.689.089-.634-.092-.581-.228-.528-.352-.493-.438-.422-.527-.386-.597-.354-.615-.282-.65-.247-.634-.211-.598-.176-.579-.106-.493z"/><path d="M32.631 16.422l-.106-.421-.092-.334.193.035.194.018.175.034.159.035.176.035.159.036.14.034.158.018.054.404.092.423.107.421.104.406.138.422.159.404.175.387.422.773.247.369.283.351.276.322.335.322.334.275.37.264.404.246-.632.141-.562.001-.511-.123-.475-.246-.404-.334-.37-.404-.334-.49-.299-.528-.248-.562-.229-.58-.176-.58-.177-.564-.141-.527z"/><path d="M34.058 17.195l-.159-.634-.106-.649.229.052.23.035.246.053.228.034.228.036.211.052.23.035.211.053.106.37.088.386.106.37.09.369.106.369.105.369.141.351.159.37.193.352.213.368.264.352.316.352.353.334.422.352.493.351.546.333h-.527l-.511-.053-.491-.123-.476-.176-.439-.245-.441-.298-.386-.351-.386-.387-.335-.441-.321-.474-.282-.528-.264-.544-.211-.58z"/><path d="M35.904 17.546l-.14-.632-.108-.634.194.035.211.054.209.035.211.034.211.036.23.052.228.035.23.053.07.439.106.439.138.441.176.421.21.421.231.422.264.406.298.387.322.387.352.35.371.334.403.322.422.276.457.265.458.228.492.193-.687.054-.668-.035-.615-.106-.581-.176-.545-.228-.511-.299-.474-.353-.422-.421-.388-.439-.352-.493-.319-.527-.263-.56-.228-.599z"/><path d="M37.646 17.791l-.159-.582-.106-.596.193.034.177.017.316.036.159.017.175.035.21.035.248.035.247.511.211.473.405.88.211.404.195.369.211.351.229.334.247.334.282.299.316.321.351.276.406.299.457.276.509.282.581.275-.58-.034-.562-.092-.564-.141-.544-.21-.511-.247-.505-.298-.475-.335-.44-.387-.404-.421-.387-.457-.335-.494-.299-.505-.246-.543z"/><path d="M39.316 17.913l-.247-.564-.228-.545.157.017.211.036.528.07.282.053.247.035.209.035.159.016.211.493.23.493.265.456.263.439.3.404.316.404.335.37.369.37.369.334.407.315.421.316.441.282.457.263.492.246.493.228.528.211-.862.035-.81-.034-.721-.123-.668-.194-.615-.263-.545-.318-.512-.367-.456-.422-.422-.456-.388-.492-.335-.505-.316-.551-.299-.544z"/><path d="M41.238 18.315l-.318-.615-.264-.634.264.037.264.034.276.017.281.035.246.017.211.035.175.035.088.053.321.246.322.264.669.632.334.352.352.368.352.388.353.388.351.404.735.773.388.386.387.388.388.35.387.352.405.316-.475-.017-.491-.07-.528-.123-.545-.193-.546-.227-.551-.282-.545-.333-.545-.369-.528-.422-.511-.439-.475-.491-.459-.528-.404-.545zm2.387-.02l-.564-.528-.562-.473h.195l.227.034.264.017.263.053.282.035.282.052.263.053.23.034.878.808.424.422.422.422.404.421.405.422.404.423.388.386.388.386.387.353.369.316.369.281.37.246.352.211.352.157.352.106-.458.3-.474.123-.475.001-.493-.123-.492-.247-.493-.335-.505-.421-.505-.474-1.038-1.108-1.092-1.194-.545-.58z"/><path d="M45.472 18.381l-.475-.439-.492-.422.175.018.21.017.265.034.263.018.265.034.211.018.175.018h.106l.298.069.299.14.298.194.318.263.321.315.334.37.352.387.353.421.404.439.405.439.458.457.474.441.511.439.546.404.58.367.634.335-.722.001-.685-.07-.616-.176-.598-.227-.545-.282-.505-.351-.494-.386-.457-.422-.458-.457-.439-.474-.422-.476-.881-.983zM15.004 3.774l.475-.018.544.14-.176.176-.157.211-.158.264-.141.281-.14.322-.124.321-.121.352-.124.369-.105.352-.092.37-.089.369-.092.351-.071.353-.07.333-.053.299-.052.281-.092-.017-.071-.017-.092-.036-.071-.017-.07-.037-.071-.035-.088-.017-.104-.036v-.07l-.018-.193-.018-.299-.018-.37-.018-.439.034-.967.046-.505.106-.474.141-.457.175-.405.263-.334.3-.247zm2.442-.037l.16.106.14.106-.246.228-.245.264-.212.247-.227.276-.195.283-.194.298-.175.3-.157.318-.158.333-.281.704-.123.37-.104.387-.106.387-.104.404-.089.422-.21-.035-.159-.017-.107-.035-.07-.035-.07-.017-.072-.035-.07-.018-.106-.034.228-1.148.246-.968.246-.827.245-.685.248-.551.245-.44.245-.321.23-.228.246-.159.21-.07.23-.018.193.036.193.07z"/><path d="M18.942 3.754l.387.23.404.403-.316.229-.299.264-.282.264-.264.264-.264.275-.228.322-.211.321-.193.316-.194.353-.157.352-.159.37-.122.386-.123.404-.089.422-.092.441-.071.457-.191-.052-.211-.07-.23-.07-.229-.088-.211-.092-.193-.071-.157-.069-.106-.035.052-.422.09-.475.14-.528.175-.563.23-.58.263-.563.276-.545.316-.505.335-.457.351-.387.368-.298.387-.195.404-.07z"/><path d="M16.975 8.538l-.14.634-.07.65.422.107.211.069.211.071.228.092.23.052.21.071.23.035.158-.404.14-.441.176-.439.159-.439.174-.457.193-.458.194-.439.193-.421.209-.406.23-.37.245-.351.248-.299.276-.264.282-.211.298-.159.321-.092-.422-.281-.422-.158-.44-.053-.422.053-.44.14-.423.23-.405.321-.387.37-.349.422-.352.493-.299.545-.263.563-.228.599z"/><path d="M18.911 9.434l-.211.545-.228.511.193.017.176.053.176.052.177.07.174.054.176.069.193.052.194.034.017-.07.017-.176.052-.229.053-.322.092-.369.124-.422.14-.457.193-.475.227-.475.264-.475.334-.476.369-.44.441-.422.491-.352.564-.318.631-.23-.668-.298-.598-.158-.528-.018-.475.089-.422.193-.37.298-.332.37-.299.44-.265.492-.227.545-.23.565-.21.562-.21.58z"/><path d="M20.228 9.433l-.156.721-.092.775 1.812.473.104-.299.141-.354.14-.369.175-.404.211-.422.21-.439.247-.441.264-.439.299-.439.333-.423.351-.386.369-.371.403-.334.441-.282.457-.247.491-.193-.405-.299-.458-.193-.491-.07-.492.018-.528.105-.527.211-.505.282-.505.353-.491.439-.458.494-.403.563-.37.616-.315.65z"/><path d="M25.26 9.851l.21-.458.229-.457.228-.458.245-.421.263-.388.282-.369.299-.333.299-.3.334-.247.369-.194.369-.14-.318-.211-.351-.158-.37-.106-.404-.035-.422.035-.441.106-.439.176-.456.264-.459.334-.456.423-.457.528-.438.599-.422.704-.421.791-.387.915-.368 1.003.263.053.333.07.335.106.371.106.351.122.335.088.299.092.246.07.175-.44.387-.918.193-.476z"/><path d="M24.802 11.223l-.21.528-.209.475.246.035.211.051.193.037.387.106.211.053.229.035.263.052.23-.475.21-.476.211-.456.21-.44.211-.44.228-.404.23-.404.227-.37.264-.37.276-.333.282-.316.316-.299.354-.283.367-.246.422-.229.439-.211-.721-.386-.65-.229-.599-.052-.545.089-.474.21-.458.321-.386.406-.37.493-.321.545-.299.581-.263.615-.245.615-.247.598z"/><path d="M26.578 11.697l-.209.511-.194.439.264.052.23.053.211.052.193.035.21.053.211.053.246.035.281.053.322-.704.316-.651.297-.597.299-.551.282-.491.263-.441.539-.756.281-.299.282-.264.276-.229.298-.193.3-.141.314-.123.336-.071.351-.052-.652-.351-.615-.176-.581-.034-.562.092-.505.211-.491.321-.458.388-.422.458-.386.528-.368.545-.333.564-.3.58-.276.581z"/><path d="M28.425 12.136l-.209.474-.193.441.211.052.193.052.195.035.176.054.193.035.193.034.211.052.228.035.106-.351.157-.388.193-.387.228-.422.246-.422.597-.845.334-.422.351-.386.37-.388.368-.351.369-.3.387-.282.369-.229.368-.176.37-.106-.633-.298-.6-.141h-.56l-.551.107-.491.21-.474.3-.439.388-.422.439-.368.492-.352.528-.333.545-.282.546-.276.551z"/><path d="M29.781 12.96l-.106.3-.052.176.264.053.229.052.686.158.211.034.23.035.228.035.158-.299.176-.369.21-.405.247-.422.262-.475.282-.475.297-.458.321-.475.334-.441.352-.404.368-.369.369-.3.388-.247.387-.158.403-.07.405.016-.651-.35-.634-.158-.634.018-.597.176-.58.282-.563.404-.528.477-.491.527-.457.565-.404.58-.367.563-.299.545-.246.476z"/><path d="M31.927 13.047l-.193.422-.176.352.211.035.175.052.158.053.142.052.159.053.14.053.141.036.157.034.158-.439.193-.44.194-.422.211-.422.247-.423.243-.387.281-.388.299-.37.321-.352.351-.321.351-.282.387-.264.422-.23.422-.193.457-.141.492-.106-.581-.387-.562-.211-.528-.052-.528.092-.492.211-.474.318-.44.387-.42.475-.388.512-.369.543-.334.565-.315.562-.264.528z"/><path d="M33.386 12.852l-.321.651-.262.689.229.035.227.035.23.053.228.07.228.053.229.071.229.053.23.034.157-.387.157-.404.159-.387.157-.405.193-.387.193-.37.23-.386.246-.352.299-.334.316-.334.37-.299.404-.282.457-.247.505-.229.579-.195.634-.158-.511-.194-.505-.122-.527-.035-.493.036-.505.107-.474.158-.475.246-.475.3-.439.352-.422.423-.404.457-.387.511-.368.563z"/><path d="M35.197 13.255l-.276.634-.246.689.211.035.211.035.721.106.247.034.491.07.124-.492.176-.456.193-.457.245-.441.264-.404.298-.387.322-.369.352-.335.386-.322.421-.264.441-.248.457-.211.492-.158.511-.141.527-.092.546-.036-.668-.276-.67-.184-.615-.092-.615-.017-.58.092-.563.159-.527.229-.511.299-.456.37-.456.422-.406.476-.386.528-.35.58z"/><path d="M36.922 13.676l-.23.615-.175.652.211.016.176.017.176.035.176.035.176.034.175.036.211.052.228.035.299-.505.282-.493.244-.44.23-.439.246-.387.229-.369.228-.352.263-.322.281-.299.316-.264.353-.246.387-.229.457-.195.491-.175.581-.159.65-.141-.598-.092-.58-.052-.58.018-.564.071-.562.141-.528.176-.505.229-.493.282-.457.334-.438.387-.387.422-.367.482-.321.528z"/><path d="M38.627 14.132l-.281.563-.281.581.141.017.193.017.211.053.23.035.228.053.212.053.193.017.158.018.263-.528.282-.475.322-.457.333-.422.352-.405.369-.37.404-.333.422-.322.439-.283.457-.263.475-.229.491-.229.505-.194.527-.176.551-.158.561-.138-.879-.21-.827-.123-.756-.034-.703.071-.651.141-.598.211-.545.263-.493.354-.473.387-.421.441-.387.475-.368.511-.334.527z"/><path d="M40.387 14.254l-.386.616-.334.668.247.018.245.035.247.053.246.052.211.052.177.054.141.016.092-.017.354-.211.35-.247.369-.282.387-.321.387-.334.403-.353.422-.352.421-.368.441-.37.439-.371.457-.368.457-.335.474-.335.457-.3.491-.281.474-.247-.491-.092-.511-.017-.563.018-.58.088-.582.124-.597.176-.598.228-.597.282-.597.334-.562.388-.544.423-.527.475-.475.528z"/><path d="M42.515 14.938l-.632.475-.634.422.193.034.23.017.281.018.282.017.298.017h.792l.475-.352.918-.735.422-.387.422-.37.406-.37.403-.37.404-.352.422-.316.404-.299.422-.264.439-.23.457-.194.475-.158.493-.089.505-.054-.44-.439-.475-.263-.493-.106-.505.036-.527.141-.563.264-.563.354-.597.404-1.213 1.003-.615.551-.615.545-.632.551z"/><path d="M44.203 15.341l-.545.387-.544.37.175.018.229.034.265.036.264.017.263.037.23.033.175.018.106.017h.316l.322-.092.334-.16.351-.228.352-.282.387-.334 1.266-1.163.473-.421.505-.405.528-.387.579-.371.598-.334.634-.299.686-.23-.735-.175-.686-.07-.65.035-.617.125-.579.211-.563.264-.545.334-.527.37-1.01.846-.491.457-.511.457-.505.44z"/><path d="M45.751 16.077l-.387.176-.333.054.276.035.3.052.333.052.351.054.352.034.352.053.334.017.299.017.491-.37.44-.351.403-.352.386-.334.352-.335.333-.333.352-.318.333-.299.334-.281.369-.265.386-.247.422-.228.457-.211.491-.176.563-.159.615-.141-.651-.37-.687-.156h-.668l-.689.141-.687.264-.686.369-.668.441-.65.475-.615.528-.598.528-.58.494-.527.456-.474.387zM11.362 2.071l.051-.211.052-.193-.276.369-.211.405-.158.387-.092.404-.035.422v.423l.053.422.089.422.105.422.138.405.315.808.177.387.159.387.159.351.158.352-.034-.07-.017-.124-.019-.122v-.158l-.017-.195V6.96v-.228l-.018-.23v-.229l-.018-.245-.018-.229-.017-.211-.036-.211-.035-.193-.053-.176-.088-.176-.07-.193-.07-.194-.052-.193-.054-.211-.053-.228-.035-.211-.019-.23-.017-.211-.016-.23-.001-.23.016-.211.016-.211z"/><path d="M10.611 9.723l.315-.177.322-.175-.276.276-.282.283-.282.276-.281.264-.299.276-.299.247-.299.248-.316.228-.298.211-.321.175-.298.159-.316.124-.321.106-.316.053-.318.017-.322-.017.334-.193.335-.212.631-.387.298-.176.299-.194.283-.177.276-.193.3-.176.279-.176.282-.194.299-.176.281-.177zm1.145-1.936l.158.211.159.211-.07-.228-.089-.23-.092-.247-.211-.491-.122-.23-.138-.229-.159-.227-.175-.211-.211-.175-.229-.176-.247-.158-.281-.124-.3-.106-.351-.07-.37-.035.246.141.23.159.227.158.423.316.193.176.195.193.194.175.528.581.158.21.176.194z"/><path d="M12.354 7.698l.069.321.072.333.035-.386.052-.37.071-.773.017-.37.018-.37-.018-.37-.018-.35-.035-.352-.054-.316-.089-.322-.106-.299-.123-.263-.176-.247-.194-.211-.228-.193.071.352.052.352.071.351.053.322.035.333.053.321.037.322.053.321.034.316.054.321.034.299.107.643zm-.898-.247l.213.248.176.192-.035-.527-.071-.457-.092-.388-.141-.351-.14-.298-.177-.264-.175-.246-.195-.23-.175-.228-.195-.228-.175-.247-.141-.281-.141-.316-.106-.352-.089-.422-.034-.474-.318.298-.191.335-.092.351-.018.37.07.369.141.387.194.387.23.386.264.369.276.369.3.351.299.322.282.321z"/><path d="M12.663 3.548l.105-.321.14-.321-.505.493-.421.475-.299.441-.21.422-.141.404-.07.369-.017.37.035.334.09.322.085.298.124.282.124.245.106.247.105.211.07.211.036.176v-.37l.018-.351.016-.351.018-.353.017-.334.035-.334.035-.333.034-.318.054-.316.052-.334.092-.321.07-.321.089-.322zm-1.93 5.964l.281-.037.264-.035-.229.106-.229.088-.246.106-.247.092-.264.089-.54.141-.275.035-.282.018h-.298l-.299-.018-.301-.069-.298-.092-.299-.124-.298-.175-.3-.211.282.052.282.054.562.069.275.017.283.017h.535l.281-.018h.264l.281-.035.545-.036z"/><path d="M5.81 12.135l-.14.141-.124.158.123-.421.194-.371.227-.316.283-.298.316-.247.353-.23.386-.193.404-.159.844-.281.439-.107.44-.106.439-.089.422-.092.387-.071.387-.088-.193.07-.264.141-.322.213-.386.228-.387.246-.404.23-.387.211-.353.141-.211.036-.192.035-.211.053-.21.053-.213.089-.209.069-.193.088-.211.106-.193.106-.193.122-.176.124-.177.123-.157.141zm5.398-2.296l.299-.158.228-.138-.244.511-.247.422-.263.334-.246.299-.264.229-.264.211-.79.476-.265.175-.263.176-.246.211-.247.263-.246.321-.228.37-.229.457-.158-.404-.054-.387.053-.387.141-.352.21-.334.281-.334.334-.322.369-.282.387-.281.404-.246.422-.247.406-.211.367-.193z"/><path d="M10.086 13.783l-.07.322-.07.335-.176-.668-.092-.58-.018-.528.053-.456.105-.388.159-.351.193-.3.21-.247.247-.23.246-.193.264-.158.247-.14.228-.14.211-.123.295-.265-.194.299-.193.299-.193.298-.175.282-.159.281-.158.299-.159.282-.14.282-.14.299-.123.298-.124.282-.106.298-.092.322z"/></g></g><g stroke="#231f20"><path d="M77.022 18.641c-6.227-.857-29.212-2.017-39.466-3.697-8.247-1.349-16.303-3.805-23.99-6.383-1.987-.667-5.51-2.036-7.759-3.247C4.382 4.225.953 2.606.018 1.08c14.902 7.075 20.9 9.024 38.382 12.561 7.088 1.456 32.888 3.545 38.622 5.005z" fill="#231f20" class="B C"/><g class="D"><path d="M46.967 16.362l-.352-.23-.322-.104.545.034.322.035.316.034.634.071.322.017.281.035.44.404.422.386.37.387.335.387.334.367.615.72.634.668.335.298.352.299.404.276.422.265.475.246.528.228.598.193-.668.229-.651.054-.651-.106-.651-.264-.634-.351-.634-.457-.599-.526-.597-.563-.563-.579-1.038-1.148-.475-.527-.44-.439z" fill="url(#A)" class="B"/><path d="M49.587 17.116l-.44-.439-.457-.404.175.017h.194l.176.018.387.034.193.036.193.017.193.018.193.017.211.017.194.036.633.046h.211l.211.018.159.246.193.299.247.351.265.37.322.404.335.404.352.422.37.404.388.388.386.369.406.333.387.281.388.228.387.159.369.092h.353l-.775.124-.721.017-.668-.069-.632-.158-.581-.245-.528-.3-.528-.351-.475-.404-.475-.422-.439-.457-.863-.967-.439-.474z" fill="url(#B)" class="B"/><path d="M52.806 17.94l-.475-.65-.493-.738.298-.001.282.018.282.035.282.035.275.036.282.033h.65l.283.281.263.298.264.282.264.316.264.298.246.322.264.299.248.321.263.299.264.299.282.298.265.282.897.79.335.23-.44.053-.423.035-.404-.017-.404-.07-.405-.092-.387-.158-.386-.193-.405-.264-.404-.298-.405-.351-.405-.422-.418-.462-.44-.546z" fill="url(#C)" class="B"/><path d="M54.845 17.34l-.321-.334-.282-.282 1.882.175.212.281.229.276.21.283.211.279.211.282.23.281.211.281.228.282.247.263.247.276.247.265.282.262.281.264.3.264.321.246.334.244-.334.178-.368.07-.37-.053-.387-.157-.388-.23-.404-.321-.404-.351-.406-.421-.386-.44-.406-.456-.369-.458-.37-.439-.352-.439z" fill="url(#D)" class="B"/><path d="M56.956 17.937l-.37-.528-.369-.505.316.053.246.017.176.017.316.036h.158l.23.017.299.017.334.475.334.439.334.422.37.369.352.333.352.322.369.275.352.246.352.21.353.193.333.141.321.123.322.106.282.07.282.034.247.017-.551.352-.505.23-.505.107h-.494l-.474-.088-.457-.158-.438-.247-.441-.315-.422-.386-.424-.404-.386-.476-.406-.473-.387-.505z" fill="url(#E)" class="B"/><path d="M58.662 17.952l-.335-.441-.322-.456.352.018.387.034.368.035.37.017.321.036.264.016.193.018.088.017.035.036.092.092.141.14.175.177.194.211.246.246.265.263.298.283.336.279.35.299.353.283.387.276.404.263.404.246.422.211.422.175-.563.07-.545.037-.528-.036-.505-.069-.476-.104-.474-.158-.44-.194-.422-.246-.422-.263-.388-.298-.387-.334-.369-.369-.352-.387z" fill="url(#F)" class="B"/><path d="M60.948 17.951l-.321-.352-.298-.352h.211l.264.018.276.017h.299l.282.034.282.018.228.018.194.035v.035l.071.092.175.159.247.193.3.246.35.281.388.3.405.297.422.316.422.322.404.298.388.264.352.246.321.193.247.14.175.088-.474.088-.458.035-.474-.052-.475-.092-.475-.157-.456-.194-.457-.228-.458-.276-.422-.298-.422-.321-.404-.333-.388-.352-.37-.369z" fill="url(#G)" class="B"/><path d="M62.601 17.651l-.194-.175-.088-.071.229.017.247.017.264.017.263.018.282.033.562.037.3.018.316.193.316.194.318.209.298.195.321.209.3.229.316.211.3.211.62.439.316.211.299.21.634.387.299.193.322.176-.281.281-.37.123h-.457l-.505-.122-.564-.211-.579-.297-.615-.353-.599-.386-.598-.422-.563-.421-.527-.404-.459-.387-.404-.316z" fill="url(#H)" class="B"/><path d="M65.837 18.439l-.634-.422-.704-.439.3.018.334.018h.298l.299.017.264.017.211.018.141.018.053.017.036.053.106.106.159.141.21.193.264.228.3.265.321.262.735.563.387.281.387.245.405.247.386.21.387.176.37.123.335.071-.299.106-.298.053-.299.017-.3-.046-.298-.089-.321-.122-.334-.175-.352-.211-.387-.246-.404-.282-.441-.316-.492-.334-.545-.369z" fill="url(#I)" class="B"/><path d="M66.664 17.963l-.176-.156-.107-.107.282.017.265.018.262.017.264.034.246.018.266.017.275.034.282.017.211.193.23.193.21.193.23.211.229.229.228.211.246.211.248.21.491.388.265.174.245.157.282.138.264.122.281.089.282.07-.404.158-.44.07-.458-.033-.474-.123-.492-.175-.474-.229-.494-.276-.457-.321-.44-.322-.422-.334-.387-.316-.334-.321-.3-.263z" fill="url(#J)" class="B"/><path d="M69.196 18.419l-.321-.299-.322-.282.194.018.211.035.474.035.265.034.281.018.299.034.281.017.088.211.123.211.124.194.159.194.175.175.388.35.228.14.23.141.247.123.263.123.264.092.281.071.276.069.3.035.299.018-.351.246-.35.159-.352.071-.352.018-.353-.069-.351-.107-.352-.157-.351-.21-.335-.229-.352-.281-.335-.282-.668-.597z" fill="url(#K)" class="B"/><path d="M70.884 18.63l-.159-.299-.106-.299.211.018.211.017.228.035.457.035.247.017.264.018.3.017.123.176.141.176.141.159.14.141.141.14.159.106.158.124.159.106.175.092.387.184.211.071.211.07.228.07.247.053.248.071-.3.122-.321.089-.333.053h-.37l-.352-.017-.387-.053-.369-.106-.369-.105-.353-.158-.334-.176-.299-.193-.282-.227-.246-.247z" fill="url(#L)" class="B"/><path d="M72.837 18.623l-.159-.211-.141-.229.299.036.176.018.159.017.298.035h.246v.071l.158.14.264.194.352.229.844.457.422.174.37.106-.106.106-.159.07-.193.037h-.211l-.246-.018-.263-.052-.282-.089-.281-.092-.281-.124-.282-.141-.282-.157-.247-.176-.247-.193z" fill="url(#M)" class="B"/><path d="M73.785 18.393l-.092-.07-.017-.035 1.371.156.106.07.177.089.21.106.23.106.246.123.228.092.211.088.176.052-.036.247-.088.157-.14.072-.193.035-.23-.035-.264-.089-.263-.105-.282-.141-.282-.159-.528-.349-.211-.159-.193-.141z" fill="url(#N)" class="B"/><path d="M75.932 18.888l-.334-.175-.299-.158-.246-.106.299.018.264.018.246.017.229.017.211.018.228.017.229.035.265.052-.054.335-.157.158h-.247l-.322-.092z" fill="url(#O)" class="B"/><path d="M75.985 18.01l-.352.089-.298.106-.23.071.3.051.263.035.228.052.23.034.21.052.211.053.247.053.264.07.018-.388-.158-.246-.247-.088-.334-.016z" fill="url(#P)" class="B"/><path d="M48.618 14.179l-.493.405-.505.371.176.034.193.017.193.018.176.035.194.018.193.017.211.017.193.018.194.016.211.018.21.035.405.035.21.034.229.017.211.036.175-.246.227-.3.264-.352.316-.352.334-.387.37-.387.404-.387.404-.37.441-.352.438-.316.44-.282.458-.228.44-.177.44-.106.439-.018.404.07-.773-.299-.735-.193-.689-.052-.651.035-.634.138-.58.211-.563.299-.545.335-.528.388-.505.422-.508.441-.494.457-.491.44z" fill="url(#Q)" class="B"/><path d="M51.959 13.967l-.544.651-.58.721.322.018.281.033.264.018.491.07.263.035.3.052.351.054.322-.264.299-.282.321-.3.281-.3.597-.597.281-.3.299-.299.299-.281.315-.264.299-.265.316-.264.334-.229.352-.194.352-.193.37-.159-.441-.158-.422-.104-.403-.07-.424-.035-.403.035-.422.089-.404.123-.422.194-.439.247-.441.318-.457.368-.474.441-.509.505z" fill="url(#R)" class="B"/><path d="M53.75 15.019l-.335.318-.322.264 1.918.228.246-.281.246-.282.23-.282.245-.276.247-.282.245-.299.263-.282.246-.265.282-.264.281-.264.299-.247.316-.229.334-.228.352-.194.369-.175.387-.159-.333-.281-.371-.14-.404-.034-.404.092-.44.176-.439.247-.457.316-.457.37-.457.404-.456.423-.439.422-.422.44-.386.404z" fill="url(#S)" class="B"/><path d="M55.934 14.79l-.843 1.02.335.018.276.016.229.018.211.035.21.035.23.034.263.036.318.051.369-.475.351-.422.369-.388.352-.334.367-.281.352-.248.334-.211.352-.175.334-.138.316-.106.334-.089.322-.07.298-.037.3-.034h.299l.282-.001-.528-.511-.505-.367-.493-.246-.493-.141-.492-.017-.475.071-.474.177-.457.229-.456.322-.439.369-.457.422-.862.932z" fill="url(#T)" class="B"/><path d="M57.922 15.139l-.37.423-.369.457.369.053.422.051.846.106.386.052.298.037.23.017.092-.001.034-.035.089-.07.123-.123.158-.159.194-.193.227-.195.264-.228.298-.247.334-.23.351-.246.388-.23.422-.227.422-.195.456-.176.475-.16.493-.105-.581-.211-.545-.158-.545-.092-.505-.035h-.505l-.492.071-.475.106-.457.159-.457.193-.422.247-.44.281-.403.322-.405.352z" fill="url(#U)" class="B"/><path d="M60.506 15.683l-.367.334-.333.335.227.017.282.035.322.035.669.07.299.035.264.017h.194v-.035l.088-.088.174-.123.264-.177.322-.193.37-.23.422-.247.439-.245.439-.248.457-.247.879-.438.388-.177.35-.141.283-.089.227-.053-.475-.192-.475-.141-.505-.053-.493.001-.505.054-.505.105-.492.159-.505.194-.474.229-.475.247-.919.598-.405.318z" fill="url(#V)" class="B"/><path d="M62.318 16.367l-.228.157-.106.054.247.053.276.035.3.034.322.018.334.036.335.034.632.106.335-.158.316-.16.335-.175.316-.177.321-.159.316-.176.334-.176.316-.175.322-.161.316-.176.335-.157.316-.141.321-.159.334-.14.334-.138.334-.122-.247-.387-.369-.229-.457-.086h-.527l-.581.123-.634.194-.668.264-.65.299-.668.335-.615.352-.58.335-.528.334-.438.282z" fill="url(#W)" class="B"/><path d="M66.593 16.839l-.193.141-.106.089.281.034.264.036.228.035.23.017.246.017.228.035.264.035.276.034.246-.157.247-.16.264-.193.263-.176.276-.193.282-.193.281-.194.563-.352.297-.141.299-.14.282-.107.298-.092.282-.054h.281l.281.017-.388-.275-.439-.159-.457-.069h-.491l-.511.092-.527.16-.505.193-.505.23-.949.528-.791.528-.333.23z" fill="url(#X)" class="B"/><path d="M65.871 16.154l-.689.351-.758.352.282.018.322.034.322.036.321.052.281.036.21.036.159.016.07-.016.035-.037.124-.092.158-.138.211-.158.263-.194.321-.211.334-.23.369-.23.404-.229.405-.228.438-.195.44-.176.441-.14.439-.09.422-.051.422-.001-.3-.194-.316-.14-.3-.071-.316-.034-.321.018-.334.07-.371.124-.385.142-.422.194-.441.211-.491.264-.527.282-.581.298z" fill="url(#Y)" class="B"/><path d="M69.071 16.802l-.37.265-.369.228.211.035.229.017.264.053.282.033.299.037.321.034.298.037.3.034.106-.228.124-.194.14-.194.176-.176.176-.158.193-.124.23-.124.228-.106.246-.092.263-.071.264-.052.282-.037.298-.017.299.001.615.069-.322-.352-.333-.264-.335-.175-.352-.106-.352-.017-.369.035-.388.088-.369.124-.386.194-.37.193-.387.246-.387.248-.387.246z" fill="url(#Z)" class="B"/><path d="M72.871 17.414l-.194.194-.174.211.157.035.194.035.193.035.194.034.175.017.141.018h.141l.07-.036.175-.106.3-.14.351-.157.404-.138.457-.123.439-.071.441.017-.089-.14-.141-.123-.194-.104-.211-.071-.246-.052-.281-.017h-.281l-.321.017-.298.052-.322.072-.299.105-.275.124-.265.141z" fill="url(#a)" class="B"/><path d="M73.785 17.925l-.092.07-.036.017 1.407.245.124-.051.193-.054.211-.071.247-.071.246-.053.246-.034h.229l.194.034.016-.276-.07-.211-.124-.141-.193-.092-.228-.037-.264.018-.281.035-.322.071-.299.106-.298.107-.282.106-.246.106-.211.106z" fill="url(#b)" class="B"/><path d="M70.866 16.993l-.193.281-.158.321.23.018.21.035.23.017.247.035.246.037.264.017.281.053.298.033.106-.156.123-.141.141-.123.157-.124.176-.106.193-.106.194-.089.211-.069.211-.071.228-.053.211-.035.23-.018.228-.017h.228l.23.017.211.034-.281-.229-.299-.175-.334-.157-.37-.107-.37-.07-.368-.046h-.388l-.386.033-.369.072-.369.124-.335.141-.321.176-.299.211z" fill="url(#c)" class="B"/><path d="M12.391 12.959l.422.246.551.176-.089-.265-.054-.276-.052-.281-.035-.321-.018-.322v-.333l.018-.322.017-.334.035-.335.034-.332.053-.321.07-.298.052-.299.071-.264.092-.264.071-.229-.092-.034-.071-.018-.092-.035-.072-.017-.071-.035-.069-.018-.088-.036-.092-.035-.035.054-.089.141-.122.228-.158.281-.177.334-.175.37-.159.423-.139.422-.104.441-.037.422.018.422.089.387.194.353z" fill="url(#d)" class="B"/><path d="M14.854 14.645l.193.017h.176l-.211-.563-.088-.316-.071-.322-.07-.352-.054-.351-.053-.352-.034-.369-.019-.37v-.387l.018-.369.034-.387.052-.369.071-.387.092-.351.106-.37-.21-.071-.213-.07-.194-.07-.192-.053-.16-.052-.175-.053-.141-.035-.124-.035-.245.968-.175.879-.092.756-.017.668.035.581.106.492.14.423.159.351.211.281.228.228.229.159.227.122.248.088z" fill="url(#e)" class="B"/><path d="M16.314 15.501l.441.018.509-.141-.193-.322-.193-.334-.159-.351-.141-.334-.106-.369-.107-.352-.07-.37-.071-.369-.035-.369-.017-.386v-.37l.034-.387.035-.386.07-.37.07-.388.106-.368-.176-.07-.423-.14-.211-.071-.211-.069-.175-.07-.159-.054-.123-.034-.106.351-.104.441-.071.493-.033.545-.018.598.001.597.053.597.088.581.125.545.158.505.23.439.263.352.335.264z" fill="url(#f)" class="B"/><path d="M16.258 10.671l.106-.581.157-.546.194.07.195.071.209.052.213.07.21.071.228.07.211.07.228.07v.369.404l.018.459.036.949.017.492.053.505.052.474.072.475.07.439.107.422.123.37.141.315.176.265.193.193.211.123-.476.037-.458-.071-.404-.174-.369-.246-.352-.335-.299-.404-.246-.457-.23-.505-.176-.546-.138-.581-.088-.597-.036-.598v-.597z" fill="url(#g)" class="B"/><path d="M19.69 12.584v.473l.037.932.035.458.053.456.089.423.092.388.14.368.158.333.194.283.246.228-.509-.123-.422-.176-.352-.245-.299-.282-.247-.335-.194-.386-.14-.422-.107-.441-.072-.492-.052-.505-.037-1.091-.035-1.142v-.58l-.036-.598.176.07.176.053.157.053.177.035.175.052.159.052.176.053.174.07.036.352.018.386.018.422.017.44z" fill="url(#h)" class="B"/><path d="M19.688 11.564l-.035-.528-.037-.492.193.052.176.052.157.054.178.052.175.052.157.053.176.035.194.052-.018.052-.035.124-.036.194-.053.247-.034.316-.036.353-.018.404.018.457.052.475.09.526.159.551.193.563.282.58.352.615.422.597.528.615-.703-.034-.599-.14-.491-.228-.405-.299-.322-.387-.23-.44-.193-.492-.124-.545-.071-.563-.052-.579-.018-.599-.001-1.178z" fill="url(#i)" class="B"/><path d="M20.795 12.283l.07-.668.142-.669 1.671.527-.018.281-.017.334.017.367.037.422.052.44.088.475.089.493.141.505.159.505.193.493.211.491.264.475.281.457.335.422.369.386.405.333-.475.088-.475-.034-.457-.159-.457-.247-.439-.333-.422-.404-.388-.491-.354-.545-.299-.581-.265-.633-.212-.669-.138-.689-.088-.687z" fill="url(#j)" class="B"/><path d="M25.458 14.408l.035.476.053.457.07.457.092.439.107.423.142.421.158.386.194.371.229.316.246.299.298.264-.352.052-.369-.017-.369-.092-.369-.157-.369-.23-.371-.281-.352-.35-.352-.44-.321-.475-.281-.564-.265-.615-.227-.702-.178-.758-.14-.807-.089-.898-.036-.949.264.092.334.092.371.123.386.105.37.124.369.104.322.092.247.053.035.404.019.439.034.441.018.457z" fill="url(#k)" class="B"/><path d="M25.387 13.16l-.035-.505-.054-.457.246.052.213.053.193.07.191.051.213.054.194.051.228.071.265.069.053.477.051.456.053.457.072.439.053.441.07.422.092.404.09.404.123.388.142.386.175.37.194.37.246.367.264.352.322.334.354.333-.792.037-.668-.071-.581-.192-.458-.3-.386-.367-.318-.44-.228-.493-.177-.562-.142-.562-.092-.617-.107-1.194-.017-.598z" fill="url(#l)" class="B"/><path d="M27.163 13.616l-.053-.493-.037-.422.248.054.211.052.193.053.194.035.175.052.195.034.227.07.265.053.088.687.106.651.124.597.124.563.138.505.158.492.176.422.176.405.176.369.195.334.211.281.194.263.211.246.211.193.229.176.211.159-.704.036-.615-.088-.546-.192-.476-.299-.404-.37-.351-.439-.283-.508-.247-.546-.21-.563-.159-.597-.124-.581-.089-.597-.092-.563z" fill="url(#m)" class="B"/><path d="M28.903 14.018l-.07-.474-.072-.422.211.035.211.053.212.052.423.106.21.051.211.052.228.054.018.333.054.37.07.387.123.422.124.457.175.439.177.474.193.458.23.457.247.439.245.404.265.386.264.37.282.322.298.263.283.211-.669.036-.598-.092-.528-.195-.491-.276-.404-.368-.37-.422-.322-.492-.282-.526-.246-.551-.194-.58-.159-.581-.141-.579-.124-.551z" fill="url(#n)" class="B"/><path d="M30.522 14l-.053-.299v-.175l.264.051.247.053.246.07.246.053.246.07.23.052.228.053.23.037.088.299.197.755.125.458.142.475.157.491.176.491.195.512.211.491.228.457.247.441.264.387.3.332.299.264.334.193.351.106-.689.089-.634-.092-.58-.228-.528-.352-.493-.438-.422-.527-.386-.597-.354-.615-.282-.65-.247-.634-.211-.598-.176-.579-.106-.493z" fill="url(#o)" class="B"/><path d="M32.651 14.754l-.106-.421-.092-.333.193.035.194.018.175.034.159.035.176.035.158.037.14.034.159.018.054.404.092.422.107.421.104.405.138.421.159.404.175.387.422.773.247.369.283.351.276.322.335.321.334.276.37.264.404.246-.632.14h-.562l-.511-.122-.475-.246-.404-.334-.37-.404-.334-.49-.299-.528-.248-.562-.229-.579-.176-.581-.177-.563-.14-.527z" fill="url(#p)" class="B"/><path d="M34.077 15.527l-.159-.634-.106-.649.229.052.23.035.246.053.228.034.228.036.211.051.23.035.211.053.106.369.088.387.106.37.09.368.106.369.105.369.141.352.159.369.193.352.213.369.264.351.316.352.353.334.422.351.493.352.546.333-.527.001-.511-.053-.491-.123-.476-.176-.439-.245-.44-.298-.387-.35-.386-.387-.335-.441-.322-.474-.282-.528-.264-.545-.211-.58z" fill="url(#q)" class="B"/><path d="M35.923 15.877l-.14-.632-.108-.634.194.035.211.054.421.069.211.037.23.052.228.035.23.053.07.438.106.439.138.441.176.421.21.421.23.422.264.405.298.387.321.388.352.349.371.334.403.321.423.281.457.264.458.228.492.193-.687.054-.668-.035-.615-.106-.581-.175-.545-.229-.511-.299-.474-.353-.422-.421-.388-.439-.352-.493-.319-.527-.263-.561-.228-.599z" fill="url(#r)" class="B"/><path d="M37.664 16.123l-.159-.582-.106-.597.193.034.177.017.159.018.157.018.159.017.175.035.21.035.248.034.247.511.211.473.405.88.211.404.195.369.211.351.229.334.247.334.282.299.316.321.351.276.406.298.457.276.509.281.581.276-.58-.034-.563-.092-.564-.141-.544-.21-.511-.246-.505-.298-.475-.335-.44-.386-.404-.421-.387-.456-.335-.494-.299-.505-.246-.544z" fill="url(#s)" class="B"/><path d="M39.33 16.244l-.247-.563-.228-.545.157.017.211.036.263.035.264.035.282.053.247.035.209.035.159.016.211.493.23.493.265.456.263.439.3.404.316.404.335.369.369.37.369.334.406.316.421.322.441.282.457.263.492.246.493.228.528.211-.862.035-.81-.034-.721-.123-.668-.194-.615-.263-.545-.318-.512-.367-.456-.422-.422-.456-.388-.493-.335-.505-.316-.551-.3-.543z" fill="url(#t)" class="B"/><path d="M41.252 16.647l-.318-.615-.264-.634.264.037.264.034.276.017.281.035.246.017.211.035.175.035.088.053.321.246.322.264.669.632.334.352.352.367.352.388.353.388.351.404.735.773.388.386.387.387.388.35.387.352.405.316-.475-.017-.491-.07-.528-.123-.545-.193-.546-.227-.551-.282-.545-.333-.545-.369-.528-.422-.505-.439-.476-.491-.459-.528-.404-.545z" fill="url(#u)" class="B"/><path d="M43.643 16.627l-.564-.527-.563-.473h.195l.227.034.265.017.263.053.282.035.282.052.263.053.23.034.878.808.424.422.423.422.404.421.809.845.781.771.387.353.369.316.369.282.37.246.352.211.352.157.352.106-.458.3-.474.123h-.475l-.493-.123-.492-.246-.493-.334-.505-.421-.505-.475-1.038-1.108-1.092-1.194-.546-.58z" fill="url(#v)" class="B"/><path d="M45.49 16.714l-.475-.439-.492-.422.175.018.21.017.265.034.263.018.265.034.211.018.175.018h.106l.298.069.299.141.298.194.318.264.321.315.334.37.352.388.353.42.404.44.405.439.458.457.474.441.511.439.546.404.58.368.634.334h-.722l-.685-.069-.616-.177-.598-.227-.545-.282-.505-.351-.494-.386-.457-.422-.458-.456-.439-.474-.422-.475-.881-.983z" fill="url(#w)" class="B"/><path d="M15.021 2.106l.475-.018.544.14-.176.176-.158.211-.158.264-.14.281-.14.322-.124.321-.121.352-.124.369-.104.352-.092.37-.089.368-.092.352-.071.353-.07.333-.053.298-.052.282-.092-.017-.071-.017-.092-.037-.071-.017-.07-.037-.071-.034-.088-.017-.104-.036v-.071l-.018-.193-.018-.298-.018-.371-.018-.439.034-.967.046-.505.106-.475.141-.457.175-.405.263-.334.3-.247z" fill="url(#x)" class="B"/><path d="M17.464 2.07l.16.106.14.106-.246.228-.245.263-.212.247-.227.281-.195.282-.194.298-.175.3-.157.322-.158.334-.281.704-.123.37-.104.386-.106.387-.104.405-.089.423-.21-.035-.158-.017-.106-.035-.07-.036-.07-.017-.072-.035-.07-.018-.106-.034.228-1.148.246-.964.246-.827.245-.686.248-.545.245-.44.245-.321.23-.228.246-.159.21-.071.23-.018.193.036.193.07z" fill="url(#y)" class="B"/><path d="M18.96 2.086l.387.23.404.403-.316.229-.299.264-.282.264-.264.264-.264.276-.228.321-.211.321-.193.316-.194.353-.158.352-.158.369-.122.387-.123.404-.089.422-.092.441-.071.457-.191-.052-.211-.07-.23-.071-.229-.092-.211-.092-.193-.071-.157-.069-.106-.035.052-.422.09-.476.14-.528.175-.563.23-.58.263-.563.276-.545.316-.511.335-.457.351-.387.368-.298.387-.195.404-.07z" fill="url(#z)" class="B"/><path d="M16.993 6.87l-.14.634-.069.65.211.053.211.054.211.069.211.071.228.088.23.052.21.071.229.035.159-.404.14-.441.176-.439.159-.439.174-.458.193-.458.194-.439.193-.422.209-.405.23-.37.245-.352.248-.298.276-.264.282-.211.298-.159.321-.092-.422-.282-.422-.157-.439-.053-.422.053-.44.14-.422.23-.405.321-.387.369-.349.422-.352.493-.298.545-.263.563-.228.599z" fill="url(#AA)" class="B"/><path d="M18.929 7.766l-.211.546-.228.505.193.017.176.053.176.052.177.07.174.054.176.07.193.052.194.034.018-.069.017-.176.052-.229.053-.322.092-.369.124-.422.14-.457.193-.475.227-.475.264-.475.334-.475.369-.44.441-.422.491-.352.564-.318.632-.23-.668-.298-.598-.158-.528-.018-.475.089-.422.193-.37.299-.332.37-.299.44-.265.492-.227.545-.23.564-.21.563-.21.58z" fill="url(#AB)" class="B"/><path d="M20.247 7.765l-.157.721-.092.774 1.812.473.104-.298.141-.354.14-.369.176-.404.211-.423.21-.439.247-.441.264-.439.299-.439.333-.423.351-.387.369-.371.403-.334.441-.282.457-.247.491-.193-.405-.299-.458-.193-.491-.071-.492.018-.528.106-.527.211-.505.283-.505.353-.491.439-.458.494-.403.562-.37.616-.315.65z" fill="url(#AC)" class="B"/><path d="M25.278 8.184l.21-.458.229-.457.228-.458.245-.422.263-.388.282-.369.299-.334.299-.299.334-.247.369-.194.369-.141-.318-.211-.351-.157-.37-.106-.404-.034-.422.035-.441.107-.439.176-.456.265-.459.334-.456.422-.457.528-.438.599-.422.704-.421.791-.387.915-.367 1.003.263.053.333.07.335.106.371.106.351.123.335.092.299.092.246.07.175-.439.387-.918.193-.476z" fill="url(#AD)" class="B"/><path d="M24.821 9.555l-.21.527-.209.476.246.035.211.051.193.037.194.052.193.053.211.053.229.035.263.052.23-.474.21-.476.211-.457.421-.88.228-.404.23-.404.227-.37.264-.37.275-.334.282-.316.316-.3.354-.282.367-.246.423-.229.439-.211-.721-.386-.65-.229-.599-.052-.545.089-.474.21-.458.318-.386.405-.37.493-.316.545-.299.581-.263.615-.245.615-.246.597z" fill="url(#AE)" class="B"/><path d="M26.597 10.029l-.209.505-.194.44.264.052.23.053.211.052.193.035.21.053.211.053.246.035.281.053.321-.704.316-.651.297-.598.299-.546.282-.491.263-.441.275-.386.264-.371.281-.298.282-.264.275-.229.299-.193.3-.141.314-.123.336-.072.351-.052-.652-.351-.615-.175-.581-.035-.562.088-.505.211-.491.321-.457.388-.422.458-.386.528-.368.545-.333.563-.299.581-.275.581z" fill="url(#AF)" class="B"/><path d="M28.443 10.468l-.209.474-.193.441.211.052.193.052.195.035.176.053.193.036.193.034.211.052.228.035.106-.351.157-.388.193-.387.228-.423.246-.422.597-.845.334-.422.351-.386.37-.389.368-.352.369-.299.387-.282.37-.229.367-.176.37-.106-.633-.298-.6-.141h-.56l-.551.107-.491.21-.474.3-.439.388-.423.439-.368.492-.352.527-.333.546-.282.545-.276.551z" fill="url(#AG)" class="B"/><path d="M29.798 11.291l-.106.3-.052.175.264.053.229.052.458.106.228.053.211.034.23.035.228.035.158-.299.176-.369.21-.405.247-.423.262-.474.282-.475.297-.458.321-.475.334-.441.352-.404.368-.369.369-.299.388-.247.387-.158.403-.07.405.016-.651-.35-.634-.158-.634.018-.597.177-.581.281-.563.404-.528.477-.491.527-.457.564-.404.58-.367.563-.298.545-.246.476z" fill="url(#AH)" class="B"/><path d="M31.945 11.379l-.193.422-.176.351.211.035.175.053.158.053.142.052.159.052.14.053.141.036.157.034.158-.438.193-.44.194-.422.211-.422.247-.422.243-.387.282-.387.298-.37.321-.352.351-.316.351-.282.387-.264.422-.23.422-.193.457-.141.492-.106-.581-.386-.562-.211-.528-.052-.528.092-.492.211-.474.318-.44.387-.42.475-.388.511-.369.544-.334.564-.315.563-.264.528z" fill="url(#AI)" class="B"/><path d="M33.404 11.184l-.322.651-.262.689.456.07.23.053.228.07.228.053.229.07.229.053.23.034.157-.387.157-.405.159-.387.157-.405.193-.387.193-.37.23-.387.246-.352.299-.335.316-.334.37-.3.404-.281.457-.247.505-.229.579-.195.634-.158-.511-.194-.505-.122-.527-.035-.493.036-.505.106-.474.159-.475.246-.475.299-.439.353-.422.422-.404.457-.387.511-.368.563z" fill="url(#AJ)" class="B"/><path d="M35.215 11.587l-.276.634-.246.689.211.035.211.035.246.036.475.07.247.034.491.07.124-.492.176-.456.193-.457.245-.441.264-.404.298-.387.321-.37.352-.335.386-.322.421-.264.441-.248.457-.211.492-.159.511-.14.527-.088.545-.036-.668-.276-.669-.177-.615-.092-.615-.017-.58.092-.563.159-.527.229-.511.299-.456.37-.456.422-.406.476-.386.528-.35.581z" fill="url(#AK)" class="B"/><path d="M36.94 12.008l-.23.615-.175.651.211.017.176.017.175.035.176.035.176.034.175.036.211.053.228.035.299-.511.282-.493.244-.44.23-.439.246-.388.229-.369.228-.352.263-.321.281-.3.316-.264.353-.246.387-.229.457-.195.491-.176.581-.159.65-.137-.598-.092-.579-.052-.58.018-.564.071-.562.14-.528.177-.505.229-.493.281-.457.335-.438.388-.387.422-.369.475-.322.528z" fill="url(#AL)" class="B"/><path d="M38.641 12.464l-.281.563-.281.581.141.017.193.017.211.053.23.035.228.053.212.052.193.016.159.018.262-.527.281-.475.322-.457.333-.422.352-.405.369-.37.404-.333.422-.322.439-.283.457-.263.475-.229.491-.229.505-.194.527-.176.551-.159.561-.141-.879-.21-.827-.123-.756-.034-.703.071-.651.141-.598.211-.545.263-.493.354-.473.386-.421.441-.387.475-.368.511-.334.527z" fill="url(#AM)" class="B"/><path d="M40.405 12.585l-.386.615-.334.668.247.018.245.035.247.053.246.052.211.052.177.054.141.017.092-.017.354-.211.35-.247.369-.282.387-.321.387-.335.403-.352.422-.353.421-.368.441-.37.439-.371.457-.369.457-.335.474-.335.457-.299.491-.282.474-.247-.491-.092-.511-.017-.562.018-.58.089-.582.124-.597.176-.598.228-.597.282-.597.335-.562.388-.544.422-.527.476-.475.528z" fill="url(#AN)" class="B"/><path d="M42.533 13.271l-.632.475-.634.423.193.034.23.017.281.018.282.017.298.017h.564l.229-.001.475-.351.918-.74.422-.386.422-.37.406-.371.403-.369.404-.352.422-.316.404-.299.422-.264.439-.23.457-.194.475-.159.493-.088.505-.054-.44-.438-.475-.263-.493-.106-.505.035-.527.142-.562.264-.563.354-.597.403-1.213 1.003-.615.551-.615.545-.632.546z" fill="url(#AO)" class="B"/><path d="M44.222 13.672l-.551.387-.544.371.175.017.229.034.265.037.265.017.263.037.23.033.175.018.106.017.316-.001.322-.092.334-.16.351-.228.352-.282.387-.334.404-.37.862-.792.473-.422.505-.405.528-.388.579-.371.598-.334.634-.298.686-.23-.735-.175-.686-.07-.65.035-.617.124-.579.211-.562.264-.545.335-.527.37-1.02.845-.491.457-.511.457-.505.44z" fill="url(#AP)" class="B"/><path d="M45.77 14.409l-.387.177-.333.053.276.035.3.052.334.052.351.054.352.034.352.053.334.017.299.017.491-.37.44-.352.403-.352.386-.334.352-.335.333-.334.352-.322.333-.298.334-.282.369-.264.386-.247.422-.228.457-.211.491-.176.563-.16.615-.14-.651-.37-.687-.157h-.668l-.689.138-.687.264-.686.369-.668.441-.65.475-.615.528-.598.528-.58.494-.527.456-.474.388z" fill="url(#AQ)" class="B"/><path d="M11.38.404l.051-.211.053-.193-.281.369-.211.405-.158.387-.092.404-.035.422v.423l.053.422.089.422.105.422.138.406.315.808.177.387.159.386.158.351.158.352-.034-.07-.017-.123-.019-.122v-.159l-.017-.194v-.404-.228l-.018-.23v-.229l-.018-.246-.018-.229-.017-.211-.036-.211-.034-.193-.053-.176-.088-.176-.07-.193-.07-.194-.052-.193-.054-.211-.053-.228-.035-.211-.019-.23-.016-.211-.016-.229v-.23l.016-.211.016-.211z" fill="url(#AR)" class="B"/><path d="M10.629 8.054l.315-.177.322-.175-.276.276-.281.283-.282.281-.281.264-.298.276-.299.246-.299.248-.316.228-.299.211-.321.176-.299.159-.316.123-.321.106-.316.053-.318.017-.321-.016.334-.194.335-.212.315-.193.322-.193.298-.176.299-.194.283-.177.276-.193.3-.176.279-.176.282-.194.3-.175.275-.177z" fill="url(#AS)" class="B"/><path d="M11.77 6.119l.158.211.159.211-.07-.228-.089-.23-.092-.247-.211-.491-.122-.23-.138-.229-.159-.227-.175-.211-.211-.174-.229-.177-.247-.158-.281-.123-.3-.106-.351-.07-.37-.035.246.141.23.158.227.158.211.158.211.157.193.176.195.193.194.176.528.581.158.21.176.194z" fill="url(#AT)" class="B"/><path d="M12.368 6.03l.069.321.072.333.035-.387.052-.369.036-.387.035-.386.017-.371.018-.369-.018-.37-.018-.351-.035-.352-.054-.321-.089-.321-.105-.299-.124-.263-.176-.247-.194-.211-.228-.193.071.352.052.352.071.352.053.321.035.333.053.321.037.321.053.321.034.321.054.321.034.299.054.322.053.321z" fill="url(#AU)" class="B"/><path d="M11.469 5.783l.213.248.176.192-.035-.527-.071-.457-.088-.387-.141-.351-.14-.298-.177-.264-.175-.246-.195-.23-.175-.228-.195-.227-.175-.247-.141-.281-.141-.321-.106-.351-.089-.423L9.779.91l-.318.298-.191.334-.092.352-.018.37.07.369.141.387.195.388.229.386.264.369.276.37.3.351.299.321.282.321z" fill="url(#AV)" class="B"/><path d="M12.682 1.88l.105-.321.14-.321-.505.493-.421.475-.298.441-.21.422-.141.404-.07.37-.017.37.035.333.09.321.085.298.124.282.124.245.105.247.105.211.07.211.036.176v-.37l.018-.351.016-.351.018-.353.016-.335.035-.333.035-.334.034-.321.054-.321.052-.334.092-.322.07-.321.089-.322z" fill="url(#AW)" class="B"/><path d="M10.752 7.843l.545-.071-.229.106-.229.088-.246.106-.247.092-.264.089-.264.07-.276.072-.276.035-.281.018h-.299l-.298-.018-.3-.069-.299-.088-.299-.124-.298-.175-.3-.211.282.052.282.053.276.035.281.034.276.018.283.017h.546l.281-.018h.264l.281-.035.545-.036z" fill="url(#AX)" class="B"/><path d="M5.829 10.467l-.14.141-.124.158.123-.421.194-.371.227-.316.283-.299.315-.246.353-.23.386-.193.404-.159.422-.14.422-.141.878-.212.439-.089.423-.092.387-.071.387-.088-.193.07-.264.141-.321.213-.386.228-.387.246-.404.23-.387.211-.353.141-.211.037-.193.034-.211.053-.21.053-.213.09-.209.069-.193.092-.211.106-.193.106-.193.123-.176.124-.177.123-.157.141z" fill="url(#AY)" class="B"/><path d="M11.227 8.175l.299-.158.228-.141-.244.511-.247.422-.263.334-.246.3-.264.229-.264.211-.527.322-.262.159-.265.175-.263.176-.246.211-.247.264-.246.321-.228.37-.229.457-.159-.404-.054-.387.053-.386.141-.352.21-.335.281-.333.334-.321.369-.282.387-.281.404-.246.422-.247.406-.211.367-.193z" fill="url(#AZ)" class="B"/><path d="M10.104 12.116l-.07.322-.07.335-.176-.668-.092-.581-.018-.528.053-.457.106-.388.159-.352.193-.299.21-.247.247-.23.246-.193.264-.159.247-.14.228-.14.211-.123.157-.14.138-.125-.194.3-.193.299-.193.299-.175.282-.159.281-.158.299-.159.282-.14.281-.14.299-.123.298-.124.281-.106.299-.092.322z" fill="url(#Aa)" class="B"/></g></g><path d="M10.455 35.81H4.848l-.886 2.517h-3.6L5.52 24.511h4.282l5.158 13.816h-3.6l-.877-2.517m-4.72-2.563h3.815l-1.92-5.497-1.912 5.497m14.282 3.58v5.44h-3.34V27.962h3.34v1.518c.46-.605.97-1.05 1.53-1.333.56-.3 1.203-.435 1.93-.435a3.88 3.88 0 0 1 3.172 1.527c.828 1.027 1.24 2.316 1.24 3.914s-.414 2.906-1.24 3.924c-.827 1.012-1.884 1.518-3.172 1.518-.728 0-1.37-.142-1.93-.426-.56-.3-1.07-.737-1.53-1.342m2.22-6.7c-.715 0-1.266.262-1.65.787-.38.518-.57 1.268-.57 2.25s.2 1.734.57 2.258c.386.518.936.777 1.65.777s1.26-.26 1.632-.777c.38-.518.57-1.27.57-2.258s-.2-1.74-.57-2.258-.917-.777-1.632-.777m12.467 3.533c-.696 0-1.222.117-1.576.352-.348.234-.522.58-.522 1.036 0 .42.14.75.42 1 .286.234.68.352 1.185.352.628 0 1.157-.222 1.586-.666.43-.45.644-1.012.644-1.684v-.38h-1.734m5.102-1.25v5.913h-3.367v-1.553c-.448.63-.95 1.1-1.5 1.38-.56.284-1.24.426-2.043.426-1.082 0-1.962-.312-2.64-.935-.672-.63-1.007-1.444-1.007-2.443 0-1.215.42-2.107 1.26-2.674.846-.568 2.17-.85 3.974-.85h1.968v-.26c0-.524-.208-.907-.625-1.147-.417-.247-1.067-.37-1.95-.37a8.88 8.88 0 0 0-1.996.213c-.616.142-1.188.355-1.716.64v-2.526a18.59 18.59 0 0 1 2.155-.389c.72-.093 1.443-.14 2.164-.14 1.884 0 3.243.37 4.076 1.1.84.734 1.26 1.93 1.26 3.6m11.414-4.13v2.702c-.454-.308-.9-.537-1.37-.685-.454-.148-.927-.222-1.418-.222-.933 0-1.66.27-2.183.814-.516.537-.774 1.3-.774 2.258s.258 1.724.774 2.267c.522.537 1.25.805 2.183.805.522 0 1.017-.077 1.483-.23a4.38 4.38 0 0 0 1.306-.685v2.7c-.518.19-1.052.333-1.595.426-.535.1-1.073.148-1.614.148-1.884 0-3.358-.478-4.42-1.434-1.063-.962-1.595-2.298-1.595-4.007s.532-3.04 1.595-3.998 2.537-1.444 4.42-1.444c.541-.001 1.082.049 1.614.148.543.095 1.077.238 1.595.426m13.3 3.75v6.3h-3.36v-4.812l-.065-1.87c-.037-.34-.106-.6-.205-.75a1.33 1.33 0 0 0-.532-.5c-.224-.123-.48-.185-.765-.185-.696 0-1.244.268-1.642.805-.398.53-.597 1.268-.597 2.212v5.1h-3.34v-14.4h3.34v5.552c.504-.605 1.04-1.05 1.604-1.333a4.05 4.05 0 0 1 1.875-.435c1.206 0 2.12.367 2.742 1.1.628.734.942 1.8.942 3.202m13.537 1.105v.944h-7.808c.08.777.364 1.36.85 1.75s1.163.583 2.034.583a8.04 8.04 0 0 0 2.155-.305c.74-.2 1.5-.524 2.276-.944v2.554a14.19 14.19 0 0 1-2.369.666c-.8.154-1.58.23-2.37.23-1.9 0-3.36-.475-4.412-1.425-1.045-.956-1.567-2.295-1.567-4.016 0-1.7.513-3.02 1.54-3.988s2.45-1.453 4.254-1.453c1.642 0 2.954.5 3.936 1.47 1 .98 1.483 2.292 1.483 3.933m-3.433-1.1c0-.63-.187-1.135-.56-1.518-.367-.4-.85-.583-1.446-.583-.647 0-1.172.182-1.576.546-.404.358-.656.876-.756 1.555h4.338" stroke="none" fill="#1b181a" class="B"/></symbol></svg>