<svg xmlns="http://www.w3.org/2000/svg" xmlns:xlink="http://www.w3.org/1999/xlink" viewBox="0 0 106 41" fill="#fff" fill-rule="evenodd" stroke="#000" stroke-linecap="round" stroke-linejoin="round"><use xlink:href="#A" x=".5" y=".5"/><symbol id="A" overflow="visible"><g stroke="none"><g fill="#d70751" fill-rule="nonzero"><path d="M21.233 21.659c-.661.016.126.346.992.472l.645-.551c-.535.126-1.086.126-1.637.079m3.557-.881c.394-.551.677-1.133.787-1.747-.095.441-.331.819-.551 1.212-1.243.771-.11-.457 0-.929-1.338 1.668-.189.992-.236 1.464m1.307-3.416c.079-1.196-.236-.819-.346-.362.126.079.22.85.346.362M18.73 1.086c.346.063.771.11.708.189.378-.079.472-.157-.708-.189m.708.205l-.252.047.236-.016.016-.032m8.641 15.646c.047 1.07-.315 1.59-.629 2.503l-.567.283c-.472.913.047.582-.283 1.306-.724.645-2.219 2.031-2.692 2.156-.346 0 .236-.409.315-.567-.976.677-.787 1.007-2.282 1.417l-.047-.094c-3.683 1.732-8.814-1.7-8.736-6.391-.031.299-.11.22-.189.346-.189-2.408 1.117-4.832 3.321-5.824 2.156-1.07 4.675-.629 6.217.803-.85-1.102-2.534-2.282-4.533-2.172-1.952.032-3.793 1.275-4.391 2.629-1.007.629-1.117 2.44-1.558 2.77-.582 4.313 1.102 6.186 3.967 8.374.456.299.126.346.189.582-.944-.441-1.826-1.117-2.534-1.936.378.551.787 1.102 1.322 1.527-.897-.299-2.093-2.172-2.44-2.251 1.543 2.77 6.28 4.864 8.752 3.825-1.149.047-2.597.016-3.888-.457-.535-.283-1.275-.85-1.149-.96 3.384 1.259 6.863.96 9.791-1.385.74-.582 1.558-1.558 1.795-1.574-.346.535.063.252-.205.724.74-1.196-.315-.488.771-2.062l.409.551c-.157-.992 1.228-2.204 1.086-3.762.315-.472.346.52.016 1.621.472-1.228.126-1.417.236-2.44.126.346.299.708.393 1.055-.299-1.181.315-1.999.457-2.676-.157-.063-.472.519-.535-.881.016-.614.173-.315.236-.472-.126-.063-.425-.535-.614-1.432.142-.205.362.551.551.567-.126-.708-.331-1.243-.331-1.795-.551-1.149-.189.157-.645-.488-.582-1.826.488-.425.551-1.243.882 1.275 1.385 3.274 1.621 4.092a15.06 15.06 0 0 0-.819-2.912c.268.11-.425-2.062.346-.629-.834-3.069-3.573-5.95-6.091-7.288.315.283.693.629.551.692-1.259-.74-1.039-.803-1.212-1.117-1.023-.409-1.086.031-1.763 0-1.92-1.023-2.298-.913-4.061-1.558l.079.378c-1.275-.425-1.48.157-2.865 0-.079-.063.441-.236.882-.299-1.228.157-1.181-.236-2.377.047.299-.205.614-.346.929-.519-1.007.063-2.408.582-1.968.11-1.637.74-4.549 1.763-6.186 3.29l-.047-.346c-.755.897-3.258 2.692-3.463 3.856l-.205.047c-.393.661-.645 1.401-.945 2.094-.504.866-.74.33-.677.472C.929 11.553.441 13.269 0 14.67c.299.456 0 2.754.126 4.596-.504 9.098 6.375 17.928 13.915 19.959 1.102.393 2.739.378 4.14.425-1.653-.472-1.857-.252-3.463-.803-1.149-.551-1.417-1.165-2.235-1.873l.331.567c-1.606-.567-.929-.708-2.235-1.117l.346-.456c-.519-.047-1.385-.882-1.621-1.338l-.567.016c-.677-.85-1.055-1.448-1.023-1.92l-.252.283c-.205-.362-2.518-3.164-1.322-2.518-.22-.205-.519-.331-.834-.913l.236-.283c-.582-.74-1.055-1.7-1.023-2.015.315.409.52.488.74.567-1.464-3.62-1.543-.205-2.644-3.683l.236-.016c-.173-.268-.283-.567-.425-.85l.095-1.007c-1.055-1.212-.299-5.147-.142-7.319.11-.881.881-1.81 1.464-3.29l-.362-.063c.677-1.196 3.904-4.785 5.383-4.596.724-.913-.142 0-.283-.236 1.59-1.637 2.078-1.165 3.148-1.448 1.149-.677-.992.268-.441-.268 1.999-.504 1.417-1.165 4.014-1.417.268.157-.629.236-.866.441 1.653-.819 5.257-.629 7.587.456 2.707 1.259 5.745 5.005 5.871 8.531l.142.031c-.063 1.401.22 3.022-.283 4.502l.331-.677"/><path d="M14.024 22.572l-.094.457c.441.598.787 1.228 1.338 1.684-.409-.771-.708-1.086-1.244-2.141m1.023-.047c-.236-.252-.362-.567-.519-.866.142.535.441.992.724 1.464l-.205-.598m18.18-3.951l-.094.252c-.173 1.259-.567 2.518-1.149 3.683a11.61 11.61 0 0 0 1.244-3.935M18.857.772c.441-.157 1.102-.094 1.574-.205l-1.842.157.268.047M3.163 9.114c.11.96-.724 1.322.189.692.472-1.07-.205-.283-.189-.692m-1.055 4.423c.205-.629.252-1.023.331-1.385-.582.724-.268.882-.331 1.385"/></g><path d="M39.008 22.991c0 7.88 4.187 7.88 4.81 7.88 1.739 0 2.856-.945 3.328-2.598l.064 2.491 1.932-.086.773.022c.215 0 .451.022.709.064-.451-.902-.773-2.899-.773-7.279 0-4.251 0-11.444.365-13.634-1.009.472-1.868.795-3.779.945.752.816.752 1.224.752 4.917-.537-.172-1.203-.365-2.34-.365-5.024.043-5.84 4.402-5.84 7.644m8.116-3.285c-.021.021-.021 4.53-.086 5.711-.064.945-.15 2.984-2.147 2.984-2.061 0-2.577-2.383-2.748-3.414-.193-1.138-.193-2.104-.193-2.512 0-1.353.086-5.089 3.242-5.089.945 0 1.481.279 1.911.494zm14.6 2.147c0-3.264-.644-6.484-4.788-6.484-5.711 0-5.711 6.313-5.711 7.665 0 5.668 2.555 7.923 6.828 7.923 1.911 0 2.834-.279 3.328-.429-.022-1.009.107-1.653.279-2.512-.58.365-1.353.837-3.027.837-4.359 0-4.423-3.972-4.423-5.346h7.451l.064-1.653m-7.536-.279c.021-2.319.494-4.402 2.491-4.402 2.19 0 2.34 2.405 2.297 4.402zm8.609 4.531c0 2.061 0 3.242-.344 4.144 1.138.451 2.577.709 4.273.709 1.095 0 4.251 0 5.969-3.5.816-1.632 1.095-3.8 1.095-5.453 0-1.009-.107-3.221-.923-4.616-.773-1.31-2.04-1.975-3.392-1.975-2.684 0-3.478 2.233-3.886 3.392 0-1.417.021-6.398.258-8.953-1.825.837-2.941.988-4.144 1.095 1.095.451 1.095 2.297 1.095 8.309v6.849m8.03-3.049c0 2.598-.472 6.098-3.714 6.098-.451 0-1.009-.086-1.374-.172-.064-1.009-.064-2.748-.064-4.745 0-2.405.258-3.672.451-4.273.58-1.975 1.911-2.018 2.147-2.018 2.147 0 2.555 2.92 2.555 5.11zm8.352 7.729c-.558-.086-.945-.15-1.761-.15a14.8 14.8 0 0 0-2.147.15c.279-.537.386-.795.472-2.598.107-2.491.15-9.147-.064-10.542-.15-1.074-.386-1.224-.773-1.503 2.297-.215 2.942-.386 3.994-.902-.215 1.224-.258 1.846-.258 3.714-.065 9.641-.086 10.671.537 11.831m1.267-4.488c0 1.761.537 3.521 2.104 4.273.708.301 1.396.301 1.632.301 2.577 0 3.435-1.911 3.972-3.07-.021 1.224 0 1.975.086 2.963.494-.021 1.009-.086 1.846-.086.472 0 .923.064 1.396.086-.301-.472-.472-.751-.558-1.847-.064-1.052-.064-2.125-.064-3.607l.022-5.711c0-2.126-.558-4.23-4.767-4.23-2.77 0-4.401.837-5.196 1.267a6.79 6.79 0 0 1 .859 2.34c1.095-.945 2.512-1.46 3.972-1.46 2.319 0 2.319 1.546 2.319 3.715-.537-.022-.988-.086-1.739-.086-3.543.043-5.883 1.417-5.883 5.153m7.687-3.435c-.064 1.761-.086 2.984-.558 3.972-.58 1.267-1.568 1.632-2.297 1.632-1.675 0-2.04-1.396-2.04-2.77 0-2.619 2.34-2.834 3.414-2.834zm16.125 5.153c.022.945.022 1.954.429 2.77-.623-.064-.988-.15-2.125-.15-.666 0-1.031.064-1.567.15.107-.365.172-.494.215-.988.086-.644.15-2.791.15-3.543v-3.028c0-1.31 0-3.221-.086-3.886-.064-.472-.193-1.761-1.825-1.761-1.589 0-2.125 1.181-2.319 2.125-.215.988-.215 2.04-.215 6.184.022 3.586.022 3.908.301 4.895-.472-.064-1.052-.107-1.911-.107-.665 0-1.116.022-1.675.107.193-.451.301-.666.365-2.233.064-1.546.172-9.104-.086-10.886-.129-1.095-.429-1.353-.73-1.632 2.276-.107 2.984-.472 3.693-.837v2.964c.343-.859 1.03-2.791 3.843-2.791 3.5 0 3.521 2.555 3.543 4.23v8.417" fill="#000" fill-rule="nonzero"/><path d="M79.417 11.268l-2.319 2.319-2.319-2.319 2.319-2.319 2.319 2.319" fill="#d70751" fill-rule="nonzero"/></g></symbol></svg>