<svg xmlns="http://www.w3.org/2000/svg" xmlns:xlink="http://www.w3.org/1999/xlink" viewBox="0 0 117 61" fill="#fff" fill-rule="evenodd" stroke="#000" stroke-linecap="round" stroke-linejoin="round"><use xlink:href="#B" x=".5" y=".5"/><defs><radialGradient cx="30%" cy="18%" fx="30%" fy="18%" id="A" r="86%" spreadMethod="pad"><stop offset="0%" stop-color="#aeb2d5"/><stop offset=".3%" stop-color="#aeb2d5"/><stop offset=".75%" stop-color="#484c89"/></radialGradient></defs><symbol id="B" overflow="visible"><g stroke="none" fill-rule="nonzero"><path d="M0 30c0 16.568 25.887 30 57.819 30s57.819-13.432 57.819-30S89.751 0 57.819 0 0 13.432 0 30" fill="url(#A)"/><path d="M57.82 57.773c30.685 0 55.561-12.434 55.561-27.772S88.505 2.228 57.82 2.228 2.259 14.662 2.259 30 27.135 57.773 57.82 57.773" fill="#777bb3"/><path d="M31.414 33.444c2.523 0 4.407-.459 5.598-1.361 1.179-.895 1.993-2.447 2.42-4.611.398-2.023.246-3.435-.45-4.197-.713-.778-2.253-1.173-4.578-1.173h-4.032l-2.238 11.345h3.278zM18.225 47.418a.63.63 0 0 1-.484-.225c-.119-.143-.167-.33-.132-.512l5.924-30.064c.057-.291.316-.501.616-.501h12.768c4.013 0 6.999 1.073 8.877 3.195 1.887 2.131 2.47 5.11 1.732 8.853-.3 1.525-.817 2.941-1.535 4.208s-1.67 2.444-2.823 3.492c-1.384 1.277-2.95 2.203-4.65 2.748-1.674.538-3.823.811-6.388.811h-5.17l-1.476 7.492c-.057.291-.315.501-.616.501h-6.642z" fill="#000"/><path d="M30.889 22.717h3.515c2.806 0 3.782.607 4.113.969.55.601.653 1.868.3 3.665-.397 2.011-1.133 3.437-2.187 4.238-1.08.82-2.835 1.235-5.216 1.235h-2.517l1.992-10.107zm6.029-7.219H24.15a1.25 1.25 0 0 0-1.232 1.001l-5.924 30.064c-.071.363.025.738.264 1.023a1.26 1.26 0 0 0 .968.45h6.64a1.25 1.25 0 0 0 1.232-1.001l1.378-6.992h4.653c2.631 0 4.846-.283 6.583-.841 1.786-.572 3.43-1.543 4.884-2.884 1.203-1.092 2.196-2.317 2.945-3.642s1.29-2.804 1.604-4.394c.777-3.941.146-7.096-1.876-9.378-2.002-2.26-5.147-3.406-9.349-3.406m-9.543 18.564h4.039c2.677 0 4.671-.495 5.981-1.492s2.194-2.656 2.653-4.983c.439-2.234.239-3.811-.6-4.73s-2.522-1.378-5.044-1.378h-4.549l-2.479 12.583m9.543-17.327c3.841 0 6.643.994 8.404 2.983s2.291 4.764 1.589 8.328c-.289 1.468-.778 2.81-1.467 4.026s-1.59 2.329-2.702 3.338c-1.326 1.224-2.799 2.096-4.419 2.616s-3.685.78-6.194.78h-5.687L24.866 46.8h-6.64l5.923-30.064h12.768"/><path d="M62.751 39.426a.63.63 0 0 1-.484-.225c-.119-.143-.167-.33-.132-.512l2.62-13.304c.249-1.265.188-2.173-.173-2.557-.221-.235-.884-.628-2.846-.628H56.99l-3.295 16.723c-.057.291-.315.501-.616.501h-6.587a.63.63 0 0 1-.484-.225c-.119-.143-.168-.33-.132-.512L51.8 8.623c.057-.291.316-.501.616-.501h6.588a.63.63 0 0 1 .484.225c.119.143.168.33.132.512l-1.43 7.256h5.107c3.891 0 6.529.677 8.066 2.068 1.568 1.42 2.055 3.692 1.453 6.749l-2.756 13.99c-.057.291-.315.501-.616.501h-6.692z" fill="#000"/><path d="M59.002 7.505h-6.587a1.25 1.25 0 0 0-1.232 1.001L45.259 38.57c-.071.363.025.738.264 1.023a1.26 1.26 0 0 0 .968.45h6.587a1.25 1.25 0 0 0 1.232-1.001l3.196-16.222h4.231c1.958 0 2.369.413 2.386.43.119.124.275.71.017 2.017l-2.62 13.304c-.071.363.025.738.264 1.023a1.26 1.26 0 0 0 .968.45h6.692a1.25 1.25 0 0 0 1.232-1.001l2.756-13.99c.647-3.284.094-5.748-1.644-7.323-1.658-1.502-4.435-2.232-8.491-2.232h-4.349l1.285-6.519c.072-.363-.025-.738-.263-1.023a1.26 1.26 0 0 0-.968-.45m0 1.238l-1.575 7.993h5.869c3.693 0 6.239.636 7.641 1.906s1.819 3.329 1.261 6.175l-2.756 13.99h-6.692l2.62-13.302c.298-1.513.189-2.545-.329-3.096s-1.62-.826-3.305-.826h-5.263l-3.393 17.224h-6.587l5.924-30.064h6.587"/><path d="M83.238 33.444c2.523 0 4.407-.459 5.598-1.361 1.179-.895 1.993-2.446 2.42-4.611.398-2.023.246-3.435-.451-4.197-.713-.778-2.253-1.173-4.578-1.173h-4.032l-2.238 11.345h3.278zM70.05 47.418a.63.63 0 0 1-.484-.225c-.119-.143-.168-.33-.132-.512l5.924-30.064c.057-.291.316-.501.616-.501h12.768c4.015 0 6.999 1.073 8.877 3.195 1.887 2.131 2.468 5.109 1.732 8.853-.301 1.525-.817 2.941-1.535 4.208s-1.67 2.444-2.823 3.492c-1.384 1.277-2.95 2.203-4.65 2.748-1.674.538-3.823.811-6.388.811h-5.173l-1.476 7.492c-.057.291-.316.501-.616.501h-6.64z" fill="#000"/><path d="M82.713 22.717h3.515c2.806 0 3.782.607 4.113.969.55.601.654 1.868.3 3.665-.397 2.011-1.133 3.437-2.187 4.238-1.079.82-2.835 1.235-5.216 1.235h-2.516l1.991-10.107zm6.029-7.219H75.974a1.25 1.25 0 0 0-1.232 1.001l-5.924 30.064c-.071.363.025.738.264 1.023a1.26 1.26 0 0 0 .968.45h6.64a1.25 1.25 0 0 0 1.232-1.001l1.377-6.992h4.653c2.631 0 4.846-.283 6.583-.841 1.786-.572 3.43-1.543 4.884-2.885 1.203-1.093 2.193-2.316 2.944-3.642s1.29-2.804 1.604-4.394c.777-3.941.146-7.096-1.876-9.379-2.002-2.26-5.147-3.406-9.349-3.406M79.2 34.063h4.039c2.677 0 4.671-.495 5.981-1.492s2.194-2.656 2.653-4.983c.44-2.234.239-3.811-.6-4.73s-2.522-1.378-5.044-1.378h-4.549L79.2 34.062m9.543-17.327c3.841 0 6.643.994 8.404 2.983s2.291 4.764 1.589 8.328c-.289 1.468-.778 2.81-1.467 4.026s-1.59 2.329-2.702 3.338c-1.326 1.224-2.799 2.096-4.419 2.616s-3.685.78-6.194.78h-5.687L76.691 46.8h-6.64l5.924-30.064h12.768"/></g></symbol></svg>